AtkinsonHyperlegibleMono-SemiBoldItalic.sfdir
StartChar: numbersign
Encoding: 35 35 261
Width: 632
GlyphClass: 1
Flags: W
LayerCount: 2
Fore
SplineSet
101 164 m 1,0,-1
 9 164 l 1,1,-1
 44 269 l 1,2,-1
 134 269 l 1,3,-1
 177 399 l 1,4,-1
 87 399 l 1,5,-1
 122 504 l 1,6,-1
 212 504 l 1,7,-1
 267 668 l 1,8,-1
 381 668 l 1,9,-1
 326 504 l 1,10,-1
 453 504 l 1,11,-1
 508 668 l 1,12,-1
 623 668 l 1,13,-1
 568 504 l 1,14,-1
 659 504 l 1,15,-1
 624 399 l 1,16,-1
 535 399 l 1,17,-1
 491 269 l 1,18,-1
 581 269 l 1,19,-1
 546 164 l 1,20,-1
 457 164 l 1,21,-1
 402 0 l 1,22,-1
 287 0 l 1,23,-1
 342 164 l 1,24,-1
 215 164 l 1,25,-1
 160 0 l 1,26,-1
 46 0 l 1,27,-1
 101 164 l 1,0,-1
377 269 m 1,28,-1
 420 399 l 1,29,-1
 292 399 l 1,30,-1
 248 269 l 1,31,-1
 377 269 l 1,28,-1
EndSplineSet
EndChar
StartChar: asterisk
Encoding: 42 42 260
Width: 632
GlyphClass: 1
Flags: W
LayerCount: 2
Fore
SplineSet
201 372 m 1,0,-1
 305 476 l 1,1,-1
 191 528 l 1,2,-1
 229 595 l 1,3,-1
 342 542 l 1,4,-1
 368 669 l 1,5,-1
 443 669 l 1,6,-1
 415 535 l 1,7,-1
 542 562 l 1,8,-1
 551 490 l 1,9,-1
 422 463 l 1,10,-1
 472 358 l 1,11,-1
 407 323 l 1,12,-1
 357 425 l 1,13,-1
 252 323 l 1,14,-1
 201 372 l 1,0,-1
EndSplineSet
EndChar
StartChar: two
Encoding: 50 50 231
Width: 632
GlyphClass: 5
Flags: W
LayerCount: 2
Fore
SplineSet
267 247 m 128,-1,1
 357 309 357 309 417 374.5 c 128,-1,2
 477 440 477 440 477 500 c 0,3,4
 477 539 477 539 450 562.5 c 128,-1,5
 423 586 423 586 379 586 c 0,6,7
 337 586 337 586 303 563 c 128,-1,8
 269 540 269 540 249 491 c 1,9,-1
 138 534 l 1,10,11
 173 608 173 608 238 644 c 128,-1,12
 303 680 303 680 383 680 c 0,13,14
 479 680 479 680 541 634.5 c 128,-1,15
 603 589 603 589 603 508 c 0,16,17
 603 423 603 423 542 348 c 128,-1,18
 481 273 481 273 400.5 218.5 c 128,-1,19
 320 164 320 164 212 104 c 1,20,-1
 533 104 l 1,21,-1
 511 0 l 1,22,-1
 19 0 l 1,23,-1
 40 103 l 1,24,0
 177 185 177 185 267 247 c 128,-1,1
EndSplineSet
Substitution2: "'sups' Superscript in Latin lookup 6 subtable" uni00B2
AlternateSubs2: "'aalt' Access All Alternates in Latin lookup 0 subtable" uni00B2
EndChar
StartChar: five
Encoding: 53 53 234
Width: 632
GlyphClass: 1
Flags: W
LayerCount: 2
Fore
SplineSet
135.5 31 m 128,-1,1
 75 74 75 74 57 147 c 1,2,-1
 167 183 l 1,3,4
 172 135 172 135 204 108.5 c 128,-1,5
 236 82 236 82 288 82 c 0,6,7
 336 82 336 82 370 106.5 c 128,-1,8
 404 131 404 131 421 169 c 128,-1,9
 438 207 438 207 438 247 c 0,10,11
 438 301 438 301 407.5 329.5 c 128,-1,12
 377 358 377 358 328 358 c 0,13,14
 290 358 290 358 256.5 338.5 c 128,-1,15
 223 319 223 319 199 288 c 1,16,-1
 97 328 l 1,17,-1
 210 668 l 1,18,-1
 628 668 l 1,19,-1
 607 565 l 1,20,-1
 292 565 l 1,21,-1
 239 408 l 1,22,23
 296 452 296 452 370 452 c 0,24,25
 426 452 426 452 471 428 c 128,-1,26
 516 404 516 404 541 359.5 c 128,-1,27
 566 315 566 315 566 256 c 0,28,29
 566 178 566 178 530 117 c 128,-1,30
 494 56 494 56 430.5 22 c 128,-1,31
 367 -12 367 -12 287 -12 c 0,32,0
 196 -12 196 -12 135.5 31 c 128,-1,1
EndSplineSet
EndChar
StartChar: six
Encoding: 54 54 235
Width: 632
GlyphClass: 1
Flags: W
LayerCount: 2
Fore
SplineSet
132 53 m 128,-1,1
 74 118 74 118 74 228 c 0,2,3
 74 322 74 322 110 427.5 c 128,-1,4
 146 533 146 533 221.5 606.5 c 128,-1,5
 297 680 297 680 408 680 c 0,6,7
 480 680 480 680 529.5 652 c 128,-1,8
 579 624 579 624 602 568 c 1,9,-1
 490 529 l 1,10,11
 481 556 481 556 456 571.5 c 128,-1,12
 431 587 431 587 397 587 c 0,13,14
 332 587 332 587 288 529.5 c 128,-1,15
 244 472 244 472 225 390 c 1,16,17
 252 418 252 418 292 432.5 c 128,-1,18
 332 447 332 447 373 447 c 0,19,20
 432 447 432 447 477.5 421.5 c 128,-1,21
 523 396 523 396 548 351 c 128,-1,22
 573 306 573 306 573 251 c 0,23,24
 573 182 573 182 538.5 121.5 c 128,-1,25
 504 61 504 61 442 24.5 c 128,-1,26
 380 -12 380 -12 300 -12 c 0,27,0
 190 -12 190 -12 132 53 c 128,-1,1
380.5 105.5 m 128,-1,29
 412 129 412 129 428.5 166 c 128,-1,30
 445 203 445 203 445 242 c 0,31,32
 445 291 445 291 416.5 322 c 128,-1,33
 388 353 388 353 335 353 c 0,34,35
 292 353 292 353 260 330.5 c 128,-1,36
 228 308 228 308 211 271.5 c 128,-1,37
 194 235 194 235 194 194 c 0,38,39
 194 144 194 144 224 113 c 128,-1,40
 254 82 254 82 306 82 c 0,41,28
 349 82 349 82 380.5 105.5 c 128,-1,29
EndSplineSet
EndChar
StartChar: eight
Encoding: 56 56 237
Width: 632
GlyphClass: 1
Flags: W
LayerCount: 2
Fore
SplineSet
171 10.5 m 128,-1,1
 112 33 112 33 77 77 c 128,-1,2
 42 121 42 121 42 182 c 0,3,4
 42 258 42 258 86 311 c 128,-1,5
 130 364 130 364 204 387 c 1,6,7
 178 422 178 422 178 471 c 0,8,9
 178 526 178 526 206 574.5 c 128,-1,10
 234 623 234 623 282 652 c 128,-1,11
 330 681 330 681 387 681 c 0,12,13
 438 681 438 681 476.5 659 c 128,-1,14
 515 637 515 637 536 599.5 c 128,-1,15
 557 562 557 562 557 516 c 256,16,17
 557 470 557 470 536 429 c 128,-1,18
 515 388 515 388 480 360 c 1,19,20
 521 335 521 335 544.5 298 c 128,-1,21
 568 261 568 261 568 214 c 0,22,23
 568 146 568 146 531.5 94.5 c 128,-1,24
 495 43 495 43 433.5 15.5 c 128,-1,25
 372 -12 372 -12 299 -12 c 0,26,0
 230 -12 230 -12 171 10.5 c 128,-1,1
401 122.5 m 128,-1,28
 441 153 441 153 441 204 c 0,29,30
 441 250 441 250 402.5 277.5 c 128,-1,31
 364 305 364 305 308 305 c 0,32,33
 249 305 249 305 209 274.5 c 128,-1,34
 169 244 169 244 169 193 c 0,35,36
 169 146 169 146 208 119 c 128,-1,37
 247 92 247 92 302 92 c 0,38,27
 361 92 361 92 401 122.5 c 128,-1,28
423.5 435 m 128,-1,40
 452 464 452 464 452 502 c 0,41,42
 452 534 452 534 431.5 556 c 128,-1,43
 411 578 411 578 378 578 c 0,44,45
 338 578 338 578 309.5 549 c 128,-1,46
 281 520 281 520 281 482 c 0,47,48
 281 450 281 450 302.5 428 c 128,-1,49
 324 406 324 406 357 406 c 0,50,39
 395 406 395 406 423.5 435 c 128,-1,40
EndSplineSet
EndChar
StartChar: A
Encoding: 65 65 2
Width: 632
GlyphClass: 2
Flags: W
AnchorPoint: "Anchor-2" 549 10 basechar 0
AnchorPoint: "Anchor-1" 405 668 basechar 0
AnchorPoint: "Anchor-0" 263 0 basechar 0
LayerCount: 2
Fore
SplineSet
337 668 m 1,0,-1
 473 668 l 1,1,-1
 547 0 l 1,2,-1
 431 0 l 1,3,-1
 418 134 l 1,4,-1
 169 134 l 1,5,-1
 100 0 l 1,6,-1
 -21 0 l 1,7,-1
 337 668 l 1,0,-1
411 238 m 1,8,-1
 381 536 l 1,9,-1
 377 536 l 1,10,-1
 221 238 l 1,11,-1
 411 238 l 1,8,-1
EndSplineSet
Substitution2: "Single Substitution lookup 14 subtable" ordfeminine
AlternateSubs2: "'aalt' Access All Alternates in Latin lookup 0 subtable" ordfeminine
EndChar
StartChar: B
Encoding: 66 66 13
Width: 632
GlyphClass: 2
Flags: W
AnchorPoint: "Anchor-1" 413 668 basechar 0
AnchorPoint: "Anchor-0" 271 0 basechar 0
LayerCount: 2
Fore
SplineSet
173 668 m 1,0,-1
 397 668 l 2,1,2
 501 668 501 668 555.5 626.5 c 128,-1,3
 610 585 610 585 610 515 c 0,4,5
 610 461 610 461 581 413.5 c 128,-1,6
 552 366 552 366 490 344 c 1,7,8
 528 327 528 327 550 292.5 c 128,-1,9
 572 258 572 258 572 213 c 0,10,11
 572 153 572 153 545 104.5 c 128,-1,12
 518 56 518 56 465.5 28 c 128,-1,13
 413 0 413 0 339 0 c 2,14,-1
 31 0 l 1,15,-1
 173 668 l 1,0,-1
418.5 133 m 128,-1,17
 451 163 451 163 451 210 c 0,18,19
 451 247 451 247 425.5 269.5 c 128,-1,20
 400 292 400 292 352 292 c 2,21,-1
 212 292 l 1,22,-1
 172 103 l 1,23,-1
 327 103 l 2,24,16
 386 103 386 103 418.5 133 c 128,-1,17
459.5 422 m 128,-1,26
 487 449 487 449 487 491 c 0,27,28
 487 523 487 523 463.5 544 c 128,-1,29
 440 565 440 565 394 565 c 2,30,-1
 271 565 l 1,31,-1
 234 395 l 1,32,-1
 381 395 l 2,33,25
 432 395 432 395 459.5 422 c 128,-1,26
EndSplineSet
EndChar
StartChar: D
Encoding: 68 68 19
Width: 632
GlyphClass: 2
Flags: W
AnchorPoint: "Anchor-1" 404 668 basechar 0
AnchorPoint: "Anchor-0" 269 0 basechar 0
LayerCount: 2
Fore
SplineSet
156 668 m 1,0,-1
 288 668 l 2,1,2
 447 668 447 668 532 600.5 c 128,-1,3
 617 533 617 533 617 395 c 0,4,5
 617 308 617 308 583.5 217.5 c 128,-1,6
 550 127 550 127 471 63.5 c 128,-1,7
 392 0 392 0 265 0 c 2,8,-1
 14 0 l 1,9,-1
 156 668 l 1,0,-1
398 148 m 128,-1,11
 449 191 449 191 471.5 257 c 128,-1,12
 494 323 494 323 494 395 c 0,13,14
 494 484 494 484 441 524 c 128,-1,15
 388 564 388 564 289 564 c 2,16,-1
 253 564 l 1,17,-1
 156 105 l 1,18,-1
 269 105 l 2,19,10
 347 105 347 105 398 148 c 128,-1,11
EndSplineSet
EndChar
StartChar: G
Encoding: 71 71 33
Width: 632
GlyphClass: 2
Flags: W
AnchorPoint: "Anchor-1" 402 668 basechar 0
AnchorPoint: "Anchor-0" 276 0 basechar 0
LayerCount: 2
Fore
SplineSet
106 62.5 m 128,-1,1
 50 137 50 137 50 254 c 0,2,3
 50 349 50 349 87 448 c 128,-1,4
 124 547 124 547 200 613.5 c 128,-1,5
 276 680 276 680 386 680 c 0,6,7
 465 680 465 680 526 640 c 128,-1,8
 587 600 587 600 607 524 c 1,9,-1
 504 489 l 1,10,11
 491 533 491 533 457.5 555 c 128,-1,12
 424 577 424 577 381 577 c 0,13,14
 313 577 313 577 266 526.5 c 128,-1,15
 219 476 219 476 196 403.5 c 128,-1,16
 173 331 173 331 173 266 c 0,17,18
 173 189 173 189 206.5 140 c 128,-1,19
 240 91 240 91 308 91 c 0,20,21
 361 91 361 91 406 126.5 c 128,-1,22
 451 162 451 162 469 243 c 2,23,-1
 474 265 l 1,24,-1
 328 265 l 1,25,-1
 348 363 l 1,26,-1
 605 363 l 1,27,-1
 528 0 l 1,28,-1
 453 0 l 1,29,-1
 452 76 l 1,30,31
 415 30 415 30 367 9 c 128,-1,32
 319 -12 319 -12 270 -12 c 0,33,0
 162 -12 162 -12 106 62.5 c 128,-1,1
EndSplineSet
EndChar
StartChar: K
Encoding: 75 75 50
Width: 632
GlyphClass: 2
Flags: W
AnchorPoint: "Anchor-1" 407 668 basechar 0
AnchorPoint: "Anchor-0" 266 0 basechar 0
LayerCount: 2
Fore
SplineSet
161 668 m 1,0,-1
 280 668 l 1,1,-1
 216 367 l 1,2,-1
 534 668 l 1,3,-1
 681 668 l 1,4,-1
 377 383 l 1,5,-1
 558 0 l 1,6,-1
 421 0 l 1,7,-1
 285 296 l 1,8,-1
 180 198 l 1,9,-1
 138 0 l 1,10,-1
 19 0 l 1,11,-1
 161 668 l 1,0,-1
EndSplineSet
EndChar
StartChar: L
Encoding: 76 76 52
Width: 632
GlyphClass: 2
Flags: W
AnchorPoint: "Anchor-3" 347 459 basechar 0
AnchorPoint: "Anchor-1" 417 668 basechar 0
AnchorPoint: "Anchor-0" 290 0 basechar 0
LayerCount: 2
Fore
SplineSet
207 668 m 1,0,-1
 335 668 l 1,1,-1
 217 113 l 1,2,-1
 554 113 l 1,3,-1
 530 0 l 1,4,-1
 65 0 l 1,5,-1
 207 668 l 1,0,-1
EndSplineSet
EndChar
StartChar: N
Encoding: 78 78 57
Width: 632
GlyphClass: 2
Flags: W
AnchorPoint: "Anchor-1" 405 668 basechar 0
AnchorPoint: "Anchor-0" 253 0 basechar 0
LayerCount: 2
Fore
SplineSet
152 668 m 1,0,-1
 296 668 l 1,1,-1
 434 157 l 1,2,-1
 438 157 l 1,3,-1
 547 668 l 1,4,-1
 658 668 l 1,5,-1
 516 0 l 1,6,-1
 372 0 l 1,7,-1
 234 511 l 1,8,-1
 230 511 l 1,9,-1
 121 0 l 1,10,-1
 10 0 l 1,11,-1
 152 668 l 1,0,-1
EndSplineSet
EndChar
StartChar: P
Encoding: 80 80 71
Width: 632
GlyphClass: 2
Flags: W
AnchorPoint: "Anchor-1" 414 668 basechar 0
AnchorPoint: "Anchor-0" 272 0 basechar 0
LayerCount: 2
Fore
SplineSet
174 668 m 1,0,-1
 401 668 l 2,1,2
 509 668 509 668 573 618.5 c 128,-1,3
 637 569 637 569 637 483 c 0,4,5
 637 413 637 413 606 359.5 c 128,-1,6
 575 306 575 306 517 276 c 128,-1,7
 459 246 459 246 381 246 c 2,8,-1
 203 246 l 1,9,-1
 151 0 l 1,10,-1
 32 0 l 1,11,-1
 174 668 l 1,0,-1
480.5 382.5 m 128,-1,13
 514 417 514 417 514 471 c 0,14,15
 514 517 514 517 481.5 541 c 128,-1,16
 449 565 449 565 391 565 c 2,17,-1
 272 565 l 1,18,-1
 225 348 l 1,19,-1
 381 348 l 2,20,12
 447 348 447 348 480.5 382.5 c 128,-1,13
EndSplineSet
EndChar
StartChar: Q
Encoding: 81 81 73
Width: 632
GlyphClass: 1
Flags: W
LayerCount: 2
Fore
SplineSet
110 59.5 m 128,-1,1
 50 131 50 131 50 253 c 0,2,3
 50 353 50 353 86.5 451.5 c 128,-1,4
 123 550 123 550 197.5 615 c 128,-1,5
 272 680 272 680 378 680 c 0,6,7
 498 680 498 680 558 608.5 c 128,-1,8
 618 537 618 537 618 415 c 0,9,10
 618 339 618 339 596 260.5 c 128,-1,11
 574 182 574 182 531 121 c 1,12,-1
 587 55 l 1,13,-1
 512 -10 l 1,14,-1
 463 48 l 1,15,16
 388 -12 388 -12 290 -12 c 0,17,0
 170 -12 170 -12 110 59.5 c 128,-1,1
393 131 m 1,19,-1
 285 258 l 1,20,-1
 360 322 l 1,21,-1
 448 218 l 1,22,23
 471 264 471 264 482.5 317 c 128,-1,24
 494 370 494 370 494 415 c 0,25,26
 494 487 494 487 464.5 532 c 128,-1,27
 435 577 435 577 372 577 c 0,28,29
 307 577 307 577 262 523 c 128,-1,30
 217 469 217 469 195.5 393 c 128,-1,31
 174 317 174 317 174 253 c 0,32,33
 174 181 174 181 203.5 136 c 128,-1,34
 233 91 233 91 296 91 c 0,35,18
 350 91 350 91 393 131 c 1,19,-1
EndSplineSet
EndChar
StartChar: R
Encoding: 82 82 74
Width: 632
GlyphClass: 2
Flags: W
AnchorPoint: "Anchor-1" 384 668 basechar 0
AnchorPoint: "Anchor-0" 262 0 basechar 0
LayerCount: 2
Fore
SplineSet
164 668 m 1,0,-1
 386 668 l 2,1,2
 485 668 485 668 547.5 620.5 c 128,-1,3
 610 573 610 573 610 489 c 0,4,5
 610 402 610 402 557.5 341 c 128,-1,6
 505 280 505 280 405 269 c 1,7,-1
 534 0 l 1,8,-1
 401 0 l 1,9,-1
 284 262 l 1,10,-1
 197 262 l 1,11,-1
 141 0 l 1,12,-1
 22 0 l 1,13,-1
 164 668 l 1,0,-1
454 395.5 m 128,-1,15
 486 427 486 427 486 479 c 0,16,17
 486 520 486 520 455.5 542.5 c 128,-1,18
 425 565 425 565 373 565 c 2,19,-1
 262 565 l 1,20,-1
 219 364 l 1,21,-1
 359 364 l 2,22,14
 422 364 422 364 454 395.5 c 128,-1,15
EndSplineSet
EndChar
StartChar: T
Encoding: 84 84 83
Width: 632
GlyphClass: 2
Flags: W
AnchorPoint: "Anchor-1" 405 668 basechar 0
AnchorPoint: "Anchor-0" 263 0 basechar 0
LayerCount: 2
Fore
SplineSet
317 555 m 1,0,-1
 119 555 l 1,1,-1
 143 668 l 1,2,-1
 667 668 l 1,3,-1
 643 555 l 1,4,-1
 445 555 l 1,5,-1
 327 0 l 1,6,-1
 199 0 l 1,7,-1
 317 555 l 1,0,-1
EndSplineSet
EndChar
StartChar: X
Encoding: 88 88 102
Width: 632
GlyphClass: 2
Flags: W
AnchorPoint: "Anchor-1" 406 668 basechar 0
AnchorPoint: "Anchor-0" 264 0 basechar 0
LayerCount: 2
Fore
SplineSet
267 345 m 1,0,-1
 125 668 l 1,1,-1
 256 668 l 1,2,-1
 352 448 l 1,3,-1
 356 448 l 1,4,-1
 543 668 l 1,5,-1
 685 668 l 1,6,-1
 406 342 l 1,7,-1
 556 0 l 1,8,-1
 425 0 l 1,9,-1
 320 241 l 1,10,-1
 316 241 l 1,11,-1
 112 0 l 1,12,-1
 -29 0 l 1,13,-1
 267 345 l 1,0,-1
EndSplineSet
EndChar
StartChar: asciicircum
Encoding: 94 94 325
Width: 632
GlyphClass: 1
Flags: W
LayerCount: 2
Fore
SplineSet
357 668 m 1,0,-1
 453 668 l 1,1,-1
 562 311 l 1,2,-1
 448 311 l 1,3,-1
 382 537 l 1,4,-1
 218 311 l 1,5,-1
 95 311 l 1,6,-1
 357 668 l 1,0,-1
EndSplineSet
EndChar
StartChar: a
Encoding: 97 97 112
Width: 632
GlyphClass: 2
Flags: W
AnchorPoint: "Anchor-2" 496 10 basechar 0
AnchorPoint: "Anchor-1" 367 496 basechar 0
AnchorPoint: "Anchor-0" 261 0 basechar 0
LayerCount: 2
Fore
SplineSet
92 22.5 m 128,-1,1
 44 57 44 57 44 118 c 0,2,3
 44 213 44 213 136 259 c 128,-1,4
 228 305 228 305 425 313 c 1,5,-1
 426 317 l 2,6,7
 429 332 429 332 429 345 c 0,8,9
 429 381 429 381 404.5 402.5 c 128,-1,10
 380 424 380 424 333 424 c 0,11,12
 294 424 294 424 264 405.5 c 128,-1,13
 234 387 234 387 224 356 c 1,14,-1
 117 394 l 1,15,16
 146 448 146 448 203.5 478.5 c 128,-1,17
 261 509 261 509 336 509 c 0,18,19
 434 509 434 509 489.5 469.5 c 128,-1,20
 545 430 545 430 545 350 c 0,21,22
 545 321 545 321 538 290 c 2,23,-1
 517 188 l 2,24,25
 505 131 505 131 499 81.5 c 128,-1,26
 493 32 493 32 494 0 c 1,27,-1
 382 0 l 1,28,-1
 378 59 l 1,29,30
 347 24 347 24 303.5 6 c 128,-1,31
 260 -12 260 -12 212 -12 c 0,32,0
 140 -12 140 -12 92 22.5 c 128,-1,1
345.5 104 m 128,-1,34
 386 135 386 135 399 191 c 2,35,-1
 408 236 l 1,36,37
 172 226 172 226 172 134 c 0,38,39
 172 106 172 106 195 89.5 c 128,-1,40
 218 73 218 73 255 73 c 0,41,33
 305 73 305 73 345.5 104 c 128,-1,34
EndSplineSet
Substitution2: "Single Substitution lookup 14 subtable" ordfeminine
AlternateSubs2: "'aalt' Access All Alternates in Latin lookup 0 subtable" ordfeminine
EndChar
StartChar: c
Encoding: 99 99 124
Width: 632
GlyphClass: 2
Flags: W
AnchorPoint: "Anchor-1" 394 496 basechar 0
AnchorPoint: "Anchor-0" 290 0 basechar 0
LayerCount: 2
Fore
SplineSet
145.5 47 m 128,-1,1
 81 106 81 106 81 208 c 0,2,3
 81 291 81 291 117.5 360 c 128,-1,4
 154 429 154 429 220 469 c 128,-1,5
 286 509 286 509 370 509 c 0,6,7
 443 509 443 509 502.5 477 c 128,-1,8
 562 445 562 445 586 382 c 1,9,-1
 482 346 l 1,10,11
 470 378 470 378 439 395 c 128,-1,12
 408 412 408 412 372 412 c 0,13,14
 319 412 319 412 281.5 382.5 c 128,-1,15
 244 353 244 353 226 307.5 c 128,-1,16
 208 262 208 262 208 214 c 0,17,18
 208 156 208 156 239.5 121 c 128,-1,19
 271 86 271 86 334 86 c 0,20,21
 371 86 371 86 401 99.5 c 128,-1,22
 431 113 431 113 447 140 c 1,23,-1
 550 99 l 1,24,25
 514 47 514 47 454 17.5 c 128,-1,26
 394 -12 394 -12 323 -12 c 0,27,0
 210 -12 210 -12 145.5 47 c 128,-1,1
EndSplineSet
EndChar
StartChar: e
Encoding: 101 101 133
Width: 632
GlyphClass: 2
Flags: W
AnchorPoint: "Anchor-2" 459 5 basechar 0
AnchorPoint: "Anchor-1" 376 495 basechar 0
AnchorPoint: "Anchor-0" 265 1 basechar 0
LayerCount: 2
Fore
SplineSet
179.5 15 m 128,-1,1
 125 42 125 42 95 92 c 128,-1,2
 65 142 65 142 65 209 c 0,3,4
 65 290 65 290 102.5 359 c 128,-1,5
 140 428 140 428 205.5 468.5 c 128,-1,6
 271 509 271 509 352 509 c 0,7,8
 423 509 423 509 473.5 481 c 128,-1,9
 524 453 524 453 550 403 c 128,-1,10
 576 353 576 353 576 290 c 0,11,12
 576 257 576 257 568 219 c 1,13,-1
 185 219 l 1,14,15
 184 155 184 155 219 120.5 c 128,-1,16
 254 86 254 86 320 86 c 256,17,18
 386 86 386 86 423 129 c 1,19,-1
 521 89 l 1,20,21
 481 40 481 40 426 14 c 128,-1,22
 371 -12 371 -12 306 -12 c 0,23,0
 234 -12 234 -12 179.5 15 c 128,-1,1
437 381.5 m 128,-1,25
 405 415 405 415 347 415 c 256,26,27
 289 415 289 415 251.5 382 c 128,-1,28
 214 349 214 349 196 297 c 1,29,-1
 466 297 l 1,30,24
 469 348 469 348 437 381.5 c 128,-1,25
EndSplineSet
EndChar
StartChar: f
Encoding: 102 102 142
Width: 632
GlyphClass: 2
Flags: W
AnchorPoint: "Anchor-1" 412 796 basechar 0
AnchorPoint: "Anchor-0" 243 0 basechar 0
LayerCount: 2
Fore
SplineSet
267 401 m 1,0,-1
 126 401 l 1,1,-1
 145 496 l 1,2,-1
 286 496 l 1,3,-1
 307 592 l 2,4,5
 318 646 318 646 339 673 c 128,-1,6
 360 700 360 700 391.5 708.5 c 128,-1,7
 423 717 423 717 475 717 c 2,8,-1
 682 717 l 1,9,-1
 662 618 l 1,10,-1
 481 618 l 2,11,12
 454 618 454 618 444 609 c 128,-1,13
 434 600 434 600 427 570 c 2,14,-1
 411 496 l 1,15,-1
 540 496 l 1,16,-1
 520 401 l 1,17,-1
 391 401 l 1,18,-1
 306 0 l 1,19,-1
 181 0 l 1,20,-1
 267 401 l 1,0,-1
EndSplineSet
EndChar
StartChar: g
Encoding: 103 103 143
Width: 632
GlyphClass: 2
Flags: W
AnchorPoint: "Anchor-1" 372 496 basechar 0
AnchorPoint: "Anchor-0" 216 -251 basechar 0
LayerCount: 2
Fore
SplineSet
122 -169.5 m 128,-1,1
 60 -141 60 -141 38 -81 c 1,2,-1
 141 -41 l 1,3,4
 155 -73 155 -73 189.5 -87.5 c 128,-1,5
 224 -102 224 -102 263 -102 c 0,6,7
 308 -102 308 -102 340.5 -79 c 128,-1,8
 373 -56 373 -56 383 -6 c 2,9,-1
 403 86 l 1,10,11
 366 51 366 51 322.5 32.5 c 128,-1,12
 279 14 279 14 233 14 c 0,13,14
 176 14 176 14 135 41.5 c 128,-1,15
 94 69 94 69 72.5 116 c 128,-1,16
 51 163 51 163 51 220 c 0,17,18
 51 297 51 297 82.5 363 c 128,-1,19
 114 429 114 429 173.5 469 c 128,-1,20
 233 509 233 509 311 509 c 0,21,22
 362 509 362 509 406.5 484.5 c 128,-1,23
 451 460 451 460 471 417 c 1,24,-1
 507 496 l 1,25,-1
 613 496 l 1,26,-1
 509 1 l 2,27,28
 487 -101 487 -101 423 -149.5 c 128,-1,29
 359 -198 359 -198 260 -198 c 0,30,0
 184 -198 184 -198 122 -169.5 c 128,-1,1
386.5 148.5 m 128,-1,32
 427 185 427 185 442 254 c 0,33,34
 447 281 447 281 447 300 c 0,35,36
 447 352 447 352 418 382 c 128,-1,37
 389 412 389 412 336 412 c 0,38,39
 284 412 284 412 248.5 385 c 128,-1,40
 213 358 213 358 196 317 c 128,-1,41
 179 276 179 276 179 232 c 0,42,43
 179 179 179 179 208 145.5 c 128,-1,44
 237 112 237 112 291 112 c 0,45,31
 346 112 346 112 386.5 148.5 c 128,-1,32
EndSplineSet
EndChar
StartChar: h
Encoding: 104 104 147
Width: 632
GlyphClass: 2
Flags: W
AnchorPoint: "Anchor-1" 433 796 basechar 0
AnchorPoint: "Anchor-0" 264 0 basechar 0
LayerCount: 2
Fore
SplineSet
188 708 m 1,0,-1
 312 708 l 1,1,-1
 253 427 l 1,2,3
 278 458 278 458 323.5 483.5 c 128,-1,4
 369 509 369 509 422 509 c 0,5,6
 496 509 496 509 532 472.5 c 128,-1,7
 568 436 568 436 568 370 c 0,8,9
 568 341 568 341 560 303 c 2,10,-1
 495 0 l 1,11,-1
 371 0 l 1,12,-1
 431 284 l 2,13,14
 437 311 437 311 437 334 c 0,15,16
 437 412 437 412 359 412 c 0,17,18
 310 412 310 412 271 370 c 128,-1,19
 232 328 232 328 217 257 c 2,20,-1
 162 0 l 1,21,-1
 38 0 l 1,22,-1
 188 708 l 1,0,-1
EndSplineSet
EndChar
StartChar: o
Encoding: 111 111 173
Width: 632
GlyphClass: 2
Flags: W
AnchorPoint: "Anchor-3" 640 496 basechar 0
AnchorPoint: "Anchor-2" 500 10 basechar 0
AnchorPoint: "Anchor-1" 366 496 basechar 0
AnchorPoint: "Anchor-0" 263 0 basechar 0
LayerCount: 2
Fore
SplineSet
167.5 15.5 m 128,-1,1
 114 43 114 43 84 93.5 c 128,-1,2
 54 144 54 144 54 210 c 0,3,4
 54 295 54 295 90.5 363 c 128,-1,5
 127 431 127 431 193 470 c 128,-1,6
 259 509 259 509 344 509 c 0,7,8
 413 509 413 509 466 481.5 c 128,-1,9
 519 454 519 454 549 403.5 c 128,-1,10
 579 353 579 353 579 287 c 0,11,12
 579 202 579 202 542.5 134 c 128,-1,13
 506 66 506 66 440.5 27 c 128,-1,14
 375 -12 375 -12 290 -12 c 0,15,0
 221 -12 221 -12 167.5 15.5 c 128,-1,1
381.5 116.5 m 128,-1,17
 417 147 417 147 434.5 193.5 c 128,-1,18
 452 240 452 240 452 287 c 0,19,20
 452 344 452 344 424 378 c 128,-1,21
 396 412 396 412 338 412 c 0,22,23
 287 412 287 412 251.5 381.5 c 128,-1,24
 216 351 216 351 198.5 304.5 c 128,-1,25
 181 258 181 258 181 211 c 0,26,27
 181 154 181 154 209 120 c 128,-1,28
 237 86 237 86 295 86 c 0,29,16
 346 86 346 86 381.5 116.5 c 128,-1,17
EndSplineSet
Substitution2: "Single Substitution lookup 14 subtable" ordmasculine
AlternateSubs2: "'aalt' Access All Alternates in Latin lookup 0 subtable" ordmasculine
EndChar
StartChar: p
Encoding: 112 112 182
Width: 632
GlyphClass: 2
Flags: W
AnchorPoint: "Anchor-1" 353 496 basechar 0
AnchorPoint: "Anchor-0" 247 0 basechar 0
LayerCount: 2
Fore
SplineSet
128 496 m 1,0,-1
 235 496 l 1,1,-1
 237 425 l 1,2,3
 271 466 271 466 315 487.5 c 128,-1,4
 359 509 359 509 408 509 c 0,5,6
 493 509 493 509 542 451.5 c 128,-1,7
 591 394 591 394 591 302 c 0,8,9
 591 221 591 221 559 148.5 c 128,-1,10
 527 76 527 76 466 32 c 128,-1,11
 405 -12 405 -12 322 -12 c 0,12,13
 267 -12 267 -12 224.5 13 c 128,-1,14
 182 38 182 38 164 82 c 1,15,-1
 113 -162 l 1,16,-1
 -12 -162 l 1,17,-1
 128 496 l 1,0,-1
391.5 119 m 128,-1,19
 428 152 428 152 445 198.5 c 128,-1,20
 462 245 462 245 462 288 c 0,21,22
 462 343 462 343 434 377.5 c 128,-1,23
 406 412 406 412 355 412 c 0,24,25
 300 412 300 412 263 378.5 c 128,-1,26
 226 345 226 345 208 296 c 128,-1,27
 190 247 190 247 190 202 c 0,28,29
 190 148 190 148 218 117 c 128,-1,30
 246 86 246 86 299 86 c 0,31,18
 355 86 355 86 391.5 119 c 128,-1,19
EndSplineSet
EndChar
StartChar: s
Encoding: 115 115 188
Width: 632
GlyphClass: 2
Flags: W
AnchorPoint: "Anchor-1" 361 496 basechar 0
AnchorPoint: "Anchor-0" 289 0 basechar 0
LayerCount: 2
Fore
SplineSet
152.5 20 m 128,-1,1
 85 52 85 52 61 117 c 1,2,-1
 169 154 l 1,3,4
 179 116 179 116 220 98 c 128,-1,5
 261 80 261 80 308 80 c 0,6,7
 348 80 348 80 377 95 c 128,-1,8
 406 110 406 110 406 141 c 0,9,10
 406 160 406 160 387.5 173 c 128,-1,11
 369 186 369 186 328 199 c 2,12,-1
 247 224 l 2,13,14
 120 264 120 264 120 353 c 0,15,16
 120 403 120 403 150.5 438 c 128,-1,17
 181 473 181 473 230.5 491 c 128,-1,18
 280 509 280 509 337 509 c 0,19,20
 412 509 412 509 471 481.5 c 128,-1,21
 530 454 530 454 552 394 c 1,22,-1
 446 358 l 1,23,24
 436 390 436 390 402 404 c 128,-1,25
 368 418 368 418 327 418 c 0,26,27
 291 418 291 418 265.5 405 c 128,-1,28
 240 392 240 392 240 366 c 0,29,30
 240 334 240 334 301 314 c 2,31,-1
 386 288 l 2,32,33
 457 266 457 266 492 235 c 128,-1,34
 527 204 527 204 527 156 c 0,35,36
 527 103 527 103 497 65 c 128,-1,37
 467 27 467 27 416.5 7.5 c 128,-1,38
 366 -12 366 -12 306 -12 c 0,39,0
 220 -12 220 -12 152.5 20 c 128,-1,1
EndSplineSet
EndChar
StartChar: x
Encoding: 120 120 213
Width: 632
GlyphClass: 2
Flags: W
AnchorPoint: "Anchor-1" 370 496 basechar 0
AnchorPoint: "Anchor-0" 264 0 basechar 0
LayerCount: 2
Fore
SplineSet
249 258 m 1,0,-1
 120 496 l 1,1,-1
 253 496 l 1,2,-1
 332 349 l 1,3,-1
 336 349 l 1,4,-1
 478 496 l 1,5,-1
 619 496 l 1,6,-1
 389 257 l 1,7,-1
 526 0 l 1,8,-1
 393 0 l 1,9,-1
 304 165 l 1,10,-1
 300 165 l 1,11,-1
 142 0 l 1,12,-1
 1 0 l 1,13,-1
 249 258 l 1,0,-1
EndSplineSet
EndChar
StartChar: braceleft
Encoding: 123 123 270
Width: 632
GlyphClass: 1
Flags: W
LayerCount: 2
Fore
SplineSet
182.5 -135.5 m 128,-1,1
 148 -109 148 -109 148 -57 c 0,2,3
 148 -33 148 -33 154 -6 c 2,4,-1
 183 128 l 2,5,6
 188 151 188 151 188 165 c 0,7,8
 188 195 188 195 170 208.5 c 128,-1,9
 152 222 152 222 111 224 c 1,10,-1
 132 322 l 1,11,12
 170 323 170 323 191.5 332 c 128,-1,13
 213 341 213 341 224.5 360.5 c 128,-1,14
 236 380 236 380 244 417 c 2,15,-1
 280 582 l 2,16,17
 291 631 291 631 309 658 c 128,-1,18
 327 685 327 685 357.5 696.5 c 128,-1,19
 388 708 388 708 438 708 c 2,20,-1
 587 708 l 1,21,-1
 567 611 l 1,22,-1
 449 611 l 2,23,24
 423 611 423 611 412 603.5 c 128,-1,25
 401 596 401 596 396 572 c 2,26,-1
 357 396 l 2,27,28
 344 338 344 338 318 310.5 c 128,-1,29
 292 283 292 283 244 275 c 1,30,-1
 243 269 l 1,31,32
 276 255 276 255 292 233.5 c 128,-1,33
 308 212 308 212 308 178 c 0,34,35
 308 156 308 156 302 129 c 2,36,-1
 270 -17 l 1,37,-1
 268 -33 l 2,38,39
 268 -50 268 -50 280.5 -57.5 c 128,-1,40
 293 -65 293 -65 322 -65 c 2,41,-1
 423 -65 l 1,42,-1
 403 -162 l 1,43,-1
 296 -162 l 2,44,0
 217 -162 217 -162 182.5 -135.5 c 128,-1,1
EndSplineSet
EndChar
StartChar: braceright
Encoding: 125 125 271
Width: 632
GlyphClass: 1
Flags: W
LayerCount: 2
Fore
SplineSet
76 -65 m 1,0,-1
 194 -65 l 2,1,2
 220 -65 220 -65 231 -57.5 c 128,-1,3
 242 -50 242 -50 247 -26 c 2,4,-1
 286 150 l 2,5,6
 299 208 299 208 325 235.5 c 128,-1,7
 351 263 351 263 399 271 c 1,8,-1
 400 277 l 1,9,10
 367 291 367 291 351 312.5 c 128,-1,11
 335 334 335 334 335 368 c 0,12,13
 335 390 335 390 341 417 c 2,14,-1
 373 563 l 1,15,-1
 375 579 l 2,16,17
 375 596 375 596 362.5 603.5 c 128,-1,18
 350 611 350 611 321 611 c 2,19,-1
 220 611 l 1,20,-1
 240 708 l 1,21,-1
 347 708 l 2,22,23
 426 708 426 708 460.5 681.5 c 128,-1,24
 495 655 495 655 495 603 c 0,25,26
 495 579 495 579 489 552 c 2,27,-1
 460 418 l 2,28,29
 455 395 455 395 455 381 c 0,30,31
 455 351 455 351 473 337.5 c 128,-1,32
 491 324 491 324 532 322 c 1,33,-1
 511 224 l 1,34,35
 473 223 473 223 451.5 214 c 128,-1,36
 430 205 430 205 418.5 185.5 c 128,-1,37
 407 166 407 166 399 129 c 2,38,-1
 363 -36 l 2,39,40
 352 -85 352 -85 334 -112 c 128,-1,41
 316 -139 316 -139 285.5 -150.5 c 128,-1,42
 255 -162 255 -162 205 -162 c 2,43,-1
 56 -162 l 1,44,-1
 76 -65 l 1,0,-1
EndSplineSet
EndChar
StartChar: section
Encoding: 167 167 291
Width: 632
GlyphClass: 1
Flags: W
LayerCount: 2
Fore
SplineSet
121.5 -138.5 m 128,-1,1
 69 -104 69 -104 54 -36 c 1,2,-1
 164 -1 l 1,3,4
 169 -40 169 -40 194.5 -58 c 128,-1,5
 220 -76 220 -76 259 -76 c 0,6,7
 295 -76 295 -76 319.5 -60.5 c 128,-1,8
 344 -45 344 -45 344 -20 c 0,9,10
 344 -2 344 -2 328.5 15 c 128,-1,11
 313 32 313 32 273 60 c 2,12,-1
 181 123 l 2,13,14
 126 160 126 160 99.5 196 c 128,-1,15
 73 232 73 232 73 275 c 0,16,17
 73 375 73 375 201 434 c 1,18,19
 170 474 170 474 170 511 c 0,20,21
 170 562 170 562 199 600.5 c 128,-1,22
 228 639 228 639 277 659.5 c 128,-1,23
 326 680 326 680 385 680 c 0,24,25
 460 680 460 680 512.5 645.5 c 128,-1,26
 565 611 565 611 580 543 c 1,27,-1
 470 508 l 1,28,29
 465 547 465 547 439.5 565 c 128,-1,30
 414 583 414 583 375 583 c 0,31,32
 340 583 340 583 315 567 c 128,-1,33
 290 551 290 551 290 526 c 0,34,35
 290 509 290 509 305.5 492 c 128,-1,36
 321 475 321 475 361 447 c 2,37,-1
 453 384 l 2,38,39
 508 347 508 347 534.5 311 c 128,-1,40
 561 275 561 275 561 232 c 0,41,42
 561 132 561 132 433 73 c 1,43,44
 464 33 464 33 464 -4 c 0,45,46
 464 -55 464 -55 435 -93.5 c 128,-1,47
 406 -132 406 -132 357 -152.5 c 128,-1,48
 308 -173 308 -173 249 -173 c 0,49,0
 174 -173 174 -173 121.5 -138.5 c 128,-1,1
439 212 m 0,51,52
 439 233 439 233 424.5 251 c 128,-1,53
 410 269 410 269 379 290 c 2,54,-1
 269 366 l 1,55,56
 195 340 195 340 195 295 c 0,57,58
 195 274 195 274 209.5 256 c 128,-1,59
 224 238 224 238 255 217 c 2,60,-1
 365 141 l 1,61,50
 439 167 439 167 439 212 c 0,51,52
EndSplineSet
EndChar
StartChar: copyright
Encoding: 169 169 292
Width: 632
GlyphClass: 1
Flags: W
LayerCount: 2
Fore
SplineSet
181.5 33.5 m 128,-1,1
 114 80 114 80 76 159 c 128,-1,2
 38 238 38 238 38 333 c 256,3,4
 38 428 38 428 76 507.5 c 128,-1,5
 114 587 114 587 181.5 633.5 c 128,-1,6
 249 680 249 680 334 680 c 256,7,8
 419 680 419 680 486.5 633.5 c 128,-1,9
 554 587 554 587 592 507.5 c 128,-1,10
 630 428 630 428 630 333 c 256,11,12
 630 238 630 238 592 159 c 128,-1,13
 554 80 554 80 486.5 33.5 c 128,-1,14
 419 -13 419 -13 334 -13 c 256,15,0
 249 -13 249 -13 181.5 33.5 c 128,-1,1
221.5 195 m 128,-1,17
 180 247 180 247 180 335 c 256,18,19
 180 423 180 423 223 474.5 c 128,-1,20
 266 526 266 526 336 526 c 0,21,22
 380 526 380 526 415.5 503 c 128,-1,23
 451 480 451 480 469 436 c 1,24,-1
 398 406 l 1,25,26
 382 452 382 452 339 452 c 0,27,28
 307 452 307 452 285.5 423 c 128,-1,29
 264 394 264 394 264 335 c 0,30,31
 264 275 264 275 285.5 246 c 128,-1,32
 307 217 307 217 339 217 c 0,33,34
 382 217 382 217 400 257 c 1,35,-1
 469 227 l 1,36,37
 448 186 448 186 413 164.5 c 128,-1,38
 378 143 378 143 335 143 c 0,39,16
 263 143 263 143 221.5 195 c 128,-1,17
455 81 m 128,-1,41
 509 119 509 119 539.5 185 c 128,-1,42
 570 251 570 251 570 333 c 0,43,44
 570 416 570 416 539.5 482 c 128,-1,45
 509 548 509 548 455 586 c 128,-1,46
 401 624 401 624 334 624 c 256,47,48
 267 624 267 624 213 586 c 128,-1,49
 159 548 159 548 128.5 482 c 128,-1,50
 98 416 98 416 98 333 c 0,51,52
 98 251 98 251 128.5 185 c 128,-1,53
 159 119 159 119 213 81 c 128,-1,54
 267 43 267 43 334 43 c 256,55,40
 401 43 401 43 455 81 c 128,-1,41
EndSplineSet
EndChar
StartChar: ordfeminine
Encoding: 170 170 223
Width: 632
GlyphClass: 1
Flags: W
LayerCount: 2
Fore
SplineSet
227 358 m 128,-1,1
 193 381 193 381 193 427 c 0,2,3
 193 496 193 496 259.5 524.5 c 128,-1,4
 326 553 326 553 444 560 c 1,5,6
 446 574 446 574 446 579 c 0,7,8
 446 627 446 627 388 627 c 0,9,10
 336 627 336 627 318 588 c 1,11,-1
 243 615 l 1,12,13
 260 651 260 651 298.5 672 c 128,-1,14
 337 693 337 693 390 693 c 0,15,16
 534 693 534 693 534 580 c 0,17,18
 534 558 534 558 530 538 c 2,19,-1
 512 456 l 2,20,21
 504 420 504 420 501 395.5 c 128,-1,22
 498 371 498 371 499 343 c 1,23,-1
 419 343 l 1,24,-1
 416 376 l 1,25,26
 398 356 398 356 371 345.5 c 128,-1,27
 344 335 344 335 313 335 c 0,28,0
 261 335 261 335 227 358 c 128,-1,1
397 420 m 128,-1,30
 422 440 422 440 429 473 c 2,31,-1
 434 500 l 1,32,33
 359 496 359 496 321.5 480.5 c 128,-1,34
 284 465 284 465 284 436 c 0,35,36
 284 400 284 400 337 400 c 0,37,29
 372 400 372 400 397 420 c 128,-1,30
EndSplineSet
EndChar
StartChar: registered
Encoding: 174 174 293
Width: 632
GlyphClass: 1
Flags: W
LayerCount: 2
Fore
SplineSet
181.5 33.5 m 128,-1,1
 114 80 114 80 76 159 c 128,-1,2
 38 238 38 238 38 333 c 256,3,4
 38 428 38 428 76 507.5 c 128,-1,5
 114 587 114 587 181.5 633.5 c 128,-1,6
 249 680 249 680 334 680 c 256,7,8
 419 680 419 680 486.5 633.5 c 128,-1,9
 554 587 554 587 592 507.5 c 128,-1,10
 630 428 630 428 630 333 c 256,11,12
 630 238 630 238 592 159 c 128,-1,13
 554 80 554 80 486.5 33.5 c 128,-1,14
 419 -13 419 -13 334 -13 c 256,15,0
 249 -13 249 -13 181.5 33.5 c 128,-1,1
455 81 m 128,-1,17
 509 119 509 119 539.5 185 c 128,-1,18
 570 251 570 251 570 333 c 0,19,20
 570 416 570 416 539.5 482 c 128,-1,21
 509 548 509 548 455 586 c 128,-1,22
 401 624 401 624 334 624 c 256,23,24
 267 624 267 624 213 586 c 128,-1,25
 159 548 159 548 128.5 482 c 128,-1,26
 98 416 98 416 98 333 c 0,27,28
 98 251 98 251 128.5 185 c 128,-1,29
 159 119 159 119 213 81 c 128,-1,30
 267 43 267 43 334 43 c 256,31,16
 401 43 401 43 455 81 c 128,-1,17
206 529 m 1,32,-1
 332 529 l 2,33,34
 395 529 395 529 431.5 501.5 c 128,-1,35
 468 474 468 474 468 416 c 0,36,37
 468 379 468 379 450.5 351 c 128,-1,38
 433 323 433 323 393 310 c 1,39,-1
 485 162 l 1,40,-1
 401 162 l 1,41,-1
 317 301 l 1,42,-1
 281 301 l 1,43,-1
 281 162 l 1,44,-1
 206 162 l 1,45,-1
 206 529 l 1,32,-1
389 415 m 0,47,48
 389 441 389 441 373 452 c 128,-1,49
 357 463 357 463 327 463 c 2,50,-1
 281 463 l 1,51,-1
 281 367 l 1,52,-1
 328 367 l 2,53,46
 389 367 389 367 389 415 c 0,47,48
EndSplineSet
EndChar
StartChar: plusminus
Encoding: 177 177 321
Width: 632
GlyphClass: 1
Flags: W
LayerCount: 2
Fore
SplineSet
271 281 m 1,0,-1
 72 281 l 1,1,-1
 91 371 l 1,2,-1
 290 371 l 1,3,-1
 317 496 l 1,4,-1
 422 496 l 1,5,-1
 395 371 l 1,6,-1
 594 371 l 1,7,-1
 574 281 l 1,8,-1
 376 281 l 1,9,-1
 350 158 l 1,10,-1
 245 158 l 1,11,-1
 271 281 l 1,0,-1
34 106 m 1,12,-1
 537 106 l 1,13,-1
 514 0 l 1,14,-1
 12 0 l 1,15,-1
 34 106 l 1,12,-1
EndSplineSet
EndChar
StartChar: uni00B3
Encoding: 179 179 246
Width: 632
GlyphClass: 1
Flags: W
LayerCount: 2
Fore
SplineSet
256.5 383 m 128,-1,1
 218 409 218 409 207 454 c 1,2,-1
 288 479 l 1,3,4
 294 453 294 453 312 438 c 128,-1,5
 330 423 330 423 362 423 c 0,6,7
 397 423 397 423 416.5 443 c 128,-1,8
 436 463 436 463 436 491 c 0,9,10
 436 518 436 518 409.5 531 c 128,-1,11
 383 544 383 544 336 543 c 1,12,-1
 351 614 l 1,13,14
 359 613 359 613 375 613 c 0,15,16
 415 613 415 613 440.5 627 c 128,-1,17
 466 641 466 641 466 673 c 0,18,19
 466 694 466 694 448.5 707 c 128,-1,20
 431 720 431 720 402 720 c 0,21,22
 351 720 351 720 328 672 c 1,23,-1
 253 697 l 1,24,25
 271 739 271 739 313 762.5 c 128,-1,26
 355 786 355 786 406 786 c 0,27,28
 468 786 468 786 511 757 c 128,-1,29
 554 728 554 728 554 680 c 0,30,31
 554 645 554 645 532.5 615.5 c 128,-1,32
 511 586 511 586 475 573 c 1,33,34
 499 560 499 560 512 538.5 c 128,-1,35
 525 517 525 517 525 491 c 0,36,37
 525 431 525 431 478 394 c 128,-1,38
 431 357 431 357 362 357 c 0,39,0
 295 357 295 357 256.5 383 c 128,-1,1
EndSplineSet
EndChar
StartChar: paragraph
Encoding: 182 182 290
Width: 632
GlyphClass: 1
Flags: W
LayerCount: 2
Fore
SplineSet
163.5 361.5 m 128,-1,1
 128 405 128 405 128 462 c 0,2,3
 128 484 128 484 132 501 c 0,4,5
 148 578 148 578 212 623 c 128,-1,6
 276 668 276 668 365 668 c 2,7,-1
 648 668 l 1,8,-1
 636 608 l 1,9,-1
 592 608 l 1,10,-1
 429 -162 l 1,11,-1
 347 -162 l 1,12,-1
 511 608 l 1,13,-1
 411 608 l 1,14,-1
 247 -162 l 1,15,-1
 166 -162 l 1,16,-1
 264 299 l 1,17,0
 199 318 199 318 163.5 361.5 c 128,-1,1
EndSplineSet
EndChar
StartChar: uni00B9
Encoding: 185 185 244
Width: 632
GlyphClass: 1
Flags: W
LayerCount: 2
Fore
SplineSet
414 661 m 1,0,-1
 322 661 l 1,1,-1
 336 726 l 1,2,3
 386 725 386 725 412 736 c 128,-1,4
 438 747 438 747 455 779 c 1,5,-1
 524 779 l 1,6,-1
 436 364 l 1,7,-1
 351 364 l 1,8,-1
 414 661 l 1,0,-1
EndSplineSet
EndChar
StartChar: ordmasculine
Encoding: 186 186 224
Width: 632
GlyphClass: 1
Flags: W
LayerCount: 2
Fore
SplineSet
240.5 374.5 m 128,-1,1
 196 414 196 414 196 484 c 0,2,3
 196 538 196 538 219 586 c 128,-1,4
 242 634 242 634 286 663.5 c 128,-1,5
 330 693 330 693 390 693 c 0,6,7
 460 693 460 693 505 653.5 c 128,-1,8
 550 614 550 614 550 544 c 0,9,10
 550 490 550 490 527 442 c 128,-1,11
 504 394 504 394 460 364.5 c 128,-1,12
 416 335 416 335 355 335 c 0,13,0
 285 335 285 335 240.5 374.5 c 128,-1,1
413.5 429 m 128,-1,15
 436 451 436 451 446.5 482 c 128,-1,16
 457 513 457 513 457 540 c 0,17,18
 457 576 457 576 439 599 c 128,-1,19
 421 622 421 622 389 622 c 0,20,21
 355 622 355 622 332.5 600 c 128,-1,22
 310 578 310 578 299.5 546.5 c 128,-1,23
 289 515 289 515 289 488 c 0,24,25
 289 451 289 451 306.5 429 c 128,-1,26
 324 407 324 407 357 407 c 0,27,14
 391 407 391 407 413.5 429 c 128,-1,15
EndSplineSet
EndChar
StartChar: onehalf
Encoding: 189 189 241
Width: 632
GlyphClass: 3
Flags: W
LayerCount: 2
Fore
SplineSet
156 562 m 1,0,-1
 87 562 l 1,1,-1
 102 632 l 1,2,3
 144 631 144 631 165 639 c 128,-1,4
 186 647 186 647 197 668 c 1,5,-1
 261 668 l 1,6,-1
 195 360 l 1,7,-1
 113 360 l 1,8,-1
 156 562 l 1,0,-1
498 668 m 1,9,-1
 602 668 l 1,10,-1
 106 0 l 1,11,-1
 2 0 l 1,12,-1
 498 668 l 1,9,-1
464 153 m 128,-1,14
 512 188 512 188 512 221 c 0,15,16
 512 234 512 234 503 242 c 128,-1,17
 494 250 494 250 477 250 c 256,18,19
 460 250 460 250 447.5 240.5 c 128,-1,20
 435 231 435 231 430 216 c 1,21,-1
 358 239 l 1,22,23
 379 276 379 276 410 294 c 128,-1,24
 441 312 441 312 487 312 c 0,25,26
 532 312 532 312 564 290.5 c 128,-1,27
 596 269 596 269 596 231 c 0,28,29
 596 184 596 184 555.5 146 c 128,-1,30
 515 108 515 108 450 71 c 1,31,-1
 564 71 l 1,32,-1
 549 0 l 1,33,-1
 304 0 l 1,34,-1
 317 65 l 1,35,13
 416 118 416 118 464 153 c 128,-1,14
EndSplineSet
Ligature2: "'frac' Diagonal Fractions in Latin lookup 7 subtable" one slash two
EndChar
StartChar: Aring
Encoding: 197 197 10
Width: 632
GlyphClass: 2
Flags: W
AnchorPoint: "Anchor-2" 549 10 basechar 0
AnchorPoint: "Anchor-1" 436 854 basechar 0
AnchorPoint: "Anchor-0" 263 0 basechar 0
LayerCount: 2
Fore
SplineSet
299 686 m 128,-1,1
 289 708 289 708 289 733 c 0,2,3
 289 783 289 783 324.5 818.5 c 128,-1,4
 360 854 360 854 410 854 c 256,5,6
 460 854 460 854 496 818.5 c 128,-1,7
 532 783 532 783 532 733 c 0,8,9
 532 702 532 702 517 675 c 128,-1,10
 502 648 502 648 477 633 c 1,11,-1
 547 0 l 1,12,-1
 431 0 l 1,13,-1
 418 134 l 1,14,-1
 169 134 l 1,15,-1
 100 0 l 1,16,-1
 -21 0 l 1,17,-1
 327 648 l 1,18,0
 309 664 309 664 299 686 c 128,-1,1
411 238 m 1,19,-1
 381 536 l 1,20,-1
 377 536 l 1,21,-1
 221 238 l 1,22,-1
 411 238 l 1,19,-1
445.5 697.5 m 128,-1,24
 460 712 460 712 460 732 c 0,25,26
 460 753 460 753 445.5 767.5 c 128,-1,27
 431 782 431 782 411 782 c 256,28,29
 391 782 391 782 376 767.5 c 128,-1,30
 361 753 361 753 361 732 c 0,31,32
 361 712 361 712 376 697.5 c 128,-1,33
 391 683 391 683 411 683 c 256,34,23
 431 683 431 683 445.5 697.5 c 128,-1,24
EndSplineSet
EndChar
StartChar: AE
Encoding: 198 198 12
Width: 632
GlyphClass: 2
Flags: W
AnchorPoint: "Anchor-1" 425 668 basechar 0
AnchorPoint: "Anchor-0" 283 0 basechar 0
LayerCount: 2
Fore
SplineSet
326 668 m 1,0,-1
 713 668 l 1,1,-1
 691 568 l 1,2,-1
 479 568 l 1,3,-1
 442 393 l 1,4,-1
 576 393 l 1,5,-1
 555 294 l 1,6,-1
 421 294 l 1,7,-1
 380 100 l 1,8,-1
 594 100 l 1,9,-1
 572 0 l 1,10,-1
 255 0 l 1,11,-1
 285 140 l 1,12,-1
 141 140 l 1,13,-1
 65 0 l 1,14,-1
 -48 0 l 1,15,-1
 326 668 l 1,0,-1
304 232 m 1,16,-1
 375 563 l 1,17,-1
 371 563 l 1,18,-1
 189 232 l 1,19,-1
 304 232 l 1,16,-1
EndSplineSet
EndChar
StartChar: germandbls
Encoding: 223 223 193
Width: 632
GlyphClass: 1
Flags: W
LayerCount: 2
Fore
SplineSet
249 -2 m 1,1,-1
 240 106 l 1,2,3
 285 90 285 90 328 90 c 0,4,5
 394 90 394 90 432 127 c 128,-1,6
 470 164 470 164 470 223 c 0,7,8
 470 279 470 279 425 312.5 c 128,-1,9
 380 346 380 346 314 346 c 2,10,-1
 311 346 l 1,11,-1
 332 444 l 1,12,13
 340 443 340 443 355 443 c 0,14,15
 402 443 402 443 433 462 c 128,-1,16
 464 481 464 481 464 521 c 0,17,18
 464 553 464 553 433 569.5 c 128,-1,19
 402 586 402 586 362 586 c 0,20,21
 311 586 311 586 281.5 558.5 c 128,-1,22
 252 531 252 531 239 469 c 2,23,-1
 139 0 l 1,24,-1
 14 0 l 1,25,-1
 118 487 l 2,26,27
 159 680 159 680 354 680 c 0,28,29
 446 680 446 680 508.5 641.5 c 128,-1,30
 571 603 571 603 571 532 c 0,31,32
 571 490 571 490 547 452.5 c 128,-1,33
 523 415 523 415 481 392 c 1,34,35
 539 371 539 371 568 325.5 c 128,-1,36
 597 280 597 280 597 225 c 0,37,38
 597 163 597 163 568 108.5 c 128,-1,39
 539 54 539 54 480.5 20.5 c 128,-1,40
 422 -13 422 -13 338 -13 c 0,41,0
 298 -13 298 -13 249 -2 c 1,1,-1
EndSplineSet
EndChar
StartChar: thorn
Encoding: 254 254 183
Width: 632
GlyphClass: 2
Flags: W
AnchorPoint: "Anchor-1" 368 496 basechar 0
AnchorPoint: "Anchor-0" 262 0 basechar 0
LayerCount: 2
Fore
SplineSet
172 708 m 1,0,-1
 297 708 l 1,1,-1
 237 425 l 1,2,3
 270 466 270 466 314.5 487.5 c 128,-1,4
 359 509 359 509 408 509 c 0,5,6
 492 509 492 509 541 451.5 c 128,-1,7
 590 394 590 394 590 302 c 0,8,9
 590 221 590 221 558 148.5 c 128,-1,10
 526 76 526 76 465 32 c 128,-1,11
 404 -12 404 -12 322 -12 c 0,12,13
 267 -12 267 -12 224.5 12 c 128,-1,14
 182 36 182 36 164 81 c 1,15,-1
 113 -162 l 1,16,-1
 -12 -162 l 1,17,-1
 172 708 l 1,0,-1
391 119 m 128,-1,19
 428 152 428 152 445 199 c 128,-1,20
 462 246 462 246 462 288 c 0,21,22
 462 343 462 343 434 377.5 c 128,-1,23
 406 412 406 412 355 412 c 0,24,25
 300 412 300 412 262.5 378.5 c 128,-1,26
 225 345 225 345 207 296 c 128,-1,27
 189 247 189 247 189 202 c 0,28,29
 189 148 189 148 217 117 c 128,-1,30
 245 86 245 86 298 86 c 0,31,18
 354 86 354 86 391 119 c 128,-1,19
EndSplineSet
EndChar
StartChar: Aogonek
Encoding: 260 260 9
Width: 632
GlyphClass: 2
Flags: W
AnchorPoint: "Anchor-1" 405 668 basechar 0
LayerCount: 2
Fore
SplineSet
337 668 m 1,0,-1
 473 668 l 1,1,-1
 547 0 l 1,2,3
 509 -6 509 -6 473.5 -28.5 c 128,-1,4
 438 -51 438 -51 438 -76 c 0,5,6
 438 -107 438 -107 486 -107 c 0,7,8
 496 -107 496 -107 524 -103 c 1,9,-1
 510 -169 l 1,10,11
 494 -173 494 -173 472 -173 c 0,12,13
 416 -173 416 -173 373.5 -153 c 128,-1,14
 331 -133 331 -133 331 -95 c 0,15,16
 331 -33 331 -33 430 7 c 1,17,-1
 418 134 l 1,18,-1
 169 134 l 1,19,-1
 100 0 l 1,20,-1
 -21 0 l 1,21,-1
 337 668 l 1,0,-1
411 238 m 1,22,-1
 381 536 l 1,23,-1
 377 536 l 1,24,-1
 221 238 l 1,25,-1
 411 238 l 1,22,-1
EndSplineSet
EndChar
StartChar: aogonek
Encoding: 261 261 119
Width: 632
GlyphClass: 2
Flags: W
AnchorPoint: "Anchor-1" 367 496 basechar 0
LayerCount: 2
Fore
SplineSet
320.5 -153 m 128,-1,1
 279 -133 279 -133 279 -95 c 0,2,3
 279 -33 279 -33 382 11 c 1,4,-1
 378 59 l 1,5,6
 347 24 347 24 303.5 6 c 128,-1,7
 260 -12 260 -12 212 -12 c 0,8,9
 140 -12 140 -12 92 22.5 c 128,-1,10
 44 57 44 57 44 118 c 0,11,12
 44 213 44 213 136 259 c 128,-1,13
 228 305 228 305 425 313 c 1,14,-1
 426 317 l 2,15,16
 429 332 429 332 429 345 c 0,17,18
 429 381 429 381 404.5 402.5 c 128,-1,19
 380 424 380 424 333 424 c 0,20,21
 294 424 294 424 264 405.5 c 128,-1,22
 234 387 234 387 224 356 c 1,23,-1
 117 394 l 1,24,25
 146 448 146 448 203.5 478.5 c 128,-1,26
 261 509 261 509 336 509 c 0,27,28
 434 509 434 509 489.5 469.5 c 128,-1,29
 545 430 545 430 545 350 c 0,30,31
 545 321 545 321 538 290 c 2,32,-1
 517 188 l 2,33,34
 505 131 505 131 499 81.5 c 128,-1,35
 493 32 493 32 494 0 c 1,36,37
 450 -9 450 -9 418 -30 c 128,-1,38
 386 -51 386 -51 386 -76 c 0,39,40
 386 -92 386 -92 399.5 -99.5 c 128,-1,41
 413 -107 413 -107 434 -107 c 0,42,43
 454 -107 454 -107 472 -103 c 1,44,-1
 458 -169 l 1,45,46
 441 -173 441 -173 418 -173 c 0,47,0
 362 -173 362 -173 320.5 -153 c 128,-1,1
345.5 104 m 128,-1,49
 386 135 386 135 399 191 c 2,50,-1
 408 236 l 1,51,52
 172 226 172 226 172 134 c 0,53,54
 172 106 172 106 195 89.5 c 128,-1,55
 218 73 218 73 255 73 c 0,56,48
 305 73 305 73 345.5 104 c 128,-1,49
EndSplineSet
EndChar
StartChar: dcaron
Encoding: 271 271 130
Width: 632
GlyphClass: 1
Flags: W
LayerCount: 2
Fore
SplineSet
59.5 44.5 m 128,-1,1
 17 101 17 101 17 190 c 0,2,3
 17 267 17 267 45.5 340.5 c 128,-1,4
 74 414 74 414 131 461.5 c 128,-1,5
 188 509 188 509 268 509 c 0,6,7
 313 509 313 509 348.5 487 c 128,-1,8
 384 465 384 465 402 424 c 1,9,-1
 461 708 l 1,10,-1
 582 708 l 1,11,-1
 472 191 l 2,12,13
 450 87 450 87 448 0 c 1,14,-1
 332 0 l 1,15,-1
 328 58 l 1,16,17
 296 24 296 24 257.5 6 c 128,-1,18
 219 -12 219 -12 180 -12 c 0,19,0
 102 -12 102 -12 59.5 44.5 c 128,-1,1
310.5 122.5 m 128,-1,21
 343 159 343 159 358.5 210 c 128,-1,22
 374 261 374 261 374 303 c 0,23,24
 374 353 374 353 352 382.5 c 128,-1,25
 330 412 330 412 285 412 c 0,26,27
 237 412 237 412 204.5 379 c 128,-1,28
 172 346 172 346 156.5 297.5 c 128,-1,29
 141 249 141 249 141 204 c 0,30,31
 141 152 141 152 163.5 119 c 128,-1,32
 186 86 186 86 230 86 c 0,33,20
 278 86 278 86 310.5 122.5 c 128,-1,21
682 719 m 0,35,36
 696 719 696 719 705 711.5 c 128,-1,37
 714 704 714 704 714 691 c 0,38,39
 714 665 714 665 687 623 c 2,40,-1
 632 531 l 1,41,-1
 578 531 l 1,42,-1
 626 663 l 2,43,34
 646 719 646 719 682 719 c 0,35,36
EndSplineSet
EndChar
StartChar: dcroat
Encoding: 273 273 131
Width: 632
GlyphClass: 1
Flags: W
LayerCount: 2
Fore
SplineSet
92 45.5 m 128,-1,1
 43 103 43 103 43 195 c 0,2,3
 43 276 43 276 75 348.5 c 128,-1,4
 107 421 107 421 168 465 c 128,-1,5
 229 509 229 509 312 509 c 0,6,7
 368 509 368 509 409.5 484.5 c 128,-1,8
 451 460 451 460 469 414 c 1,9,-1
 498 550 l 1,10,-1
 350 550 l 1,11,-1
 364 616 l 1,12,-1
 512 616 l 1,13,-1
 532 708 l 1,14,-1
 656 708 l 1,15,-1
 637 616 l 1,16,-1
 695 616 l 1,17,-1
 681 550 l 1,18,-1
 623 550 l 1,19,-1
 546 191 l 2,20,21
 524 87 524 87 522 0 c 1,22,-1
 404 0 l 1,23,-1
 398 70 l 1,24,25
 363 29 363 29 318 8.5 c 128,-1,26
 273 -12 273 -12 226 -12 c 0,27,0
 141 -12 141 -12 92 45.5 c 128,-1,1
369.5 119 m 128,-1,29
 407 152 407 152 425 200.5 c 128,-1,30
 443 249 443 249 443 295 c 0,31,32
 443 350 443 350 415.5 381 c 128,-1,33
 388 412 388 412 334 412 c 0,34,35
 278 412 278 412 241.5 379 c 128,-1,36
 205 346 205 346 188 299 c 128,-1,37
 171 252 171 252 171 210 c 0,38,39
 171 154 171 154 199 120 c 128,-1,40
 227 86 227 86 279 86 c 0,41,28
 332 86 332 86 369.5 119 c 128,-1,29
EndSplineSet
EndChar
StartChar: eogonek
Encoding: 281 281 141
Width: 632
GlyphClass: 2
Flags: W
AnchorPoint: "Anchor-1" 261 496 basechar 0
LayerCount: 2
Fore
SplineSet
284 -157 m 128,-1,1
 243 -137 243 -137 243 -96 c 0,2,3
 243 -74 243 -74 256.5 -51.5 c 128,-1,4
 270 -29 270 -29 292 -10 c 1,5,6
 227 -8 227 -8 175.5 18 c 128,-1,7
 124 44 124 44 94.5 93 c 128,-1,8
 65 142 65 142 65 209 c 0,9,10
 65 290 65 290 102.5 359 c 128,-1,11
 140 428 140 428 205.5 468.5 c 128,-1,12
 271 509 271 509 352 509 c 0,13,14
 423 509 423 509 473.5 481 c 128,-1,15
 524 453 524 453 550 403 c 128,-1,16
 576 353 576 353 576 290 c 0,17,18
 576 257 576 257 568 219 c 1,19,-1
 185 219 l 1,20,21
 184 155 184 155 219 120.5 c 128,-1,22
 254 86 254 86 320 86 c 256,23,24
 386 86 386 86 423 129 c 1,25,-1
 521 89 l 1,26,27
 487 46 487 46 422 11 c 0,28,29
 392 -5 392 -5 371 -28.5 c 128,-1,30
 350 -52 350 -52 350 -76 c 0,31,32
 350 -94 350 -94 363.5 -103 c 128,-1,33
 377 -112 377 -112 400 -112 c 0,34,35
 422 -112 422 -112 436 -108 c 1,36,-1
 422 -174 l 1,37,38
 407 -177 407 -177 387 -177 c 0,39,0
 325 -177 325 -177 284 -157 c 128,-1,1
437 381.5 m 128,-1,41
 405 415 405 415 347 415 c 256,42,43
 289 415 289 415 251.5 382 c 128,-1,44
 214 349 214 349 196 297 c 1,45,-1
 466 297 l 1,46,40
 469 348 469 348 437 381.5 c 128,-1,41
EndSplineSet
EndChar
StartChar: Hbar
Encoding: 294 294 38
Width: 632
GlyphClass: 1
Flags: W
LayerCount: 2
Fore
SplineSet
111 505 m 1,0,-1
 62 505 l 1,1,-1
 78 583 l 1,2,-1
 127 583 l 1,3,-1
 145 668 l 1,4,-1
 274 668 l 1,5,-1
 255 583 l 1,6,-1
 518 583 l 1,7,-1
 536 668 l 1,8,-1
 665 668 l 1,9,-1
 647 583 l 1,10,-1
 695 583 l 1,11,-1
 679 505 l 1,12,-1
 630 505 l 1,13,-1
 523 0 l 1,14,-1
 394 0 l 1,15,-1
 455 287 l 1,16,-1
 193 287 l 1,17,-1
 132 0 l 1,18,-1
 3 0 l 1,19,-1
 111 505 l 1,0,-1
479 400 m 1,20,-1
 502 505 l 1,21,-1
 239 505 l 1,22,-1
 217 400 l 1,23,-1
 479 400 l 1,20,-1
EndSplineSet
EndChar
StartChar: hbar
Encoding: 295 295 148
Width: 632
GlyphClass: 1
Flags: W
LayerCount: 2
Fore
SplineSet
154 550 m 1,0,-1
 96 550 l 1,1,-1
 110 616 l 1,2,-1
 168 616 l 1,3,-1
 188 708 l 1,4,-1
 312 708 l 1,5,-1
 293 616 l 1,6,-1
 441 616 l 1,7,-1
 427 550 l 1,8,-1
 280 550 l 1,9,-1
 253 427 l 1,10,11
 278 458 278 458 323.5 483.5 c 128,-1,12
 369 509 369 509 422 509 c 0,13,14
 496 509 496 509 532 472.5 c 128,-1,15
 568 436 568 436 568 370 c 0,16,17
 568 341 568 341 560 303 c 2,18,-1
 495 0 l 1,19,-1
 371 0 l 1,20,-1
 431 284 l 2,21,22
 437 311 437 311 437 334 c 0,23,24
 437 412 437 412 359 412 c 0,25,26
 310 412 310 412 271 370 c 128,-1,27
 232 328 232 328 217 257 c 2,28,-1
 162 0 l 1,29,-1
 38 0 l 1,30,-1
 154 550 l 1,0,-1
EndSplineSet
EndChar
StartChar: iogonek
Encoding: 303 303 156
Width: 632
GlyphClass: 2
Flags: W
AnchorPoint: "Anchor-1" 430 740 basechar 0
LayerCount: 2
Fore
SplineSet
73 95 m 1,0,-1
 241 95 l 1,1,-1
 306 401 l 1,2,-1
 163 401 l 1,3,-1
 183 496 l 1,4,-1
 451 496 l 1,5,-1
 366 95 l 1,6,-1
 534 95 l 1,7,-1
 514 0 l 1,8,9
 469 -9 469 -9 437 -30 c 128,-1,10
 405 -51 405 -51 405 -76 c 0,11,12
 405 -92 405 -92 418.5 -99.5 c 128,-1,13
 432 -107 432 -107 453 -107 c 0,14,15
 473 -107 473 -107 491 -103 c 1,16,-1
 477 -169 l 1,17,18
 461 -173 461 -173 437 -173 c 0,19,20
 381 -173 381 -173 339.5 -153 c 128,-1,21
 298 -133 298 -133 298 -95 c 0,22,23
 298 -40 298 -40 377 0 c 1,24,-1
 52 0 l 1,25,-1
 73 95 l 1,0,-1
358 607 m 128,-1,27
 335 630 335 630 335 662 c 256,28,29
 335 694 335 694 358 717 c 128,-1,30
 381 740 381 740 413 740 c 256,31,32
 445 740 445 740 468 717 c 128,-1,33
 491 694 491 694 491 662 c 256,34,35
 491 630 491 630 468 607 c 128,-1,36
 445 584 445 584 413 584 c 256,37,26
 381 584 381 584 358 607 c 128,-1,27
EndSplineSet
EndChar
StartChar: ij
Encoding: 307 307 157
Width: 632
GlyphClass: 1
Flags: W
LayerCount: 2
Fore
SplineSet
232 -61 m 1,0,-1
 298 -61 l 2,1,2
 324 -61 324 -61 337 -57.5 c 128,-1,3
 350 -54 350 -54 357.5 -41.5 c 128,-1,4
 365 -29 365 -29 371 -2 c 2,5,-1
 457 401 l 1,6,-1
 390 401 l 1,7,-1
 410 496 l 1,8,-1
 601 496 l 1,9,-1
 491 -25 l 2,10,11
 478 -83 478 -83 455 -112 c 128,-1,12
 432 -141 432 -141 395.5 -151 c 128,-1,13
 359 -161 359 -161 297 -161 c 2,14,-1
 210 -161 l 1,15,-1
 232 -61 l 1,0,-1
153 401 m 1,16,-1
 86 401 l 1,17,-1
 106 496 l 1,18,-1
 297 496 l 1,19,-1
 192 0 l 1,20,-1
 67 0 l 1,21,-1
 153 401 l 1,16,-1
205 607 m 128,-1,23
 182 630 182 630 182 662 c 256,24,25
 182 694 182 694 205 717 c 128,-1,26
 228 740 228 740 260 740 c 256,27,28
 292 740 292 740 315 717 c 128,-1,29
 338 694 338 694 338 662 c 256,30,31
 338 630 338 630 315 607 c 128,-1,32
 292 584 292 584 260 584 c 256,33,22
 228 584 228 584 205 607 c 128,-1,23
509 607 m 128,-1,35
 486 630 486 630 486 662 c 256,36,37
 486 694 486 694 509 717 c 128,-1,38
 532 740 532 740 564 740 c 256,39,40
 596 740 596 740 619 717 c 128,-1,41
 642 694 642 694 642 662 c 256,42,43
 642 630 642 630 619 607 c 128,-1,44
 596 584 596 584 564 584 c 256,45,34
 532 584 532 584 509 607 c 128,-1,35
EndSplineSet
EndChar
StartChar: Lslash
Encoding: 321 321 55
Width: 632
GlyphClass: 1
Flags: W
LayerCount: 2
Fore
SplineSet
115 236 m 1,0,-1
 17 186 l 1,1,-1
 40 295 l 1,2,-1
 138 345 l 1,3,-1
 207 668 l 1,4,-1
 335 668 l 1,5,-1
 282 419 l 1,6,-1
 471 516 l 1,7,-1
 448 406 l 1,8,-1
 259 309 l 1,9,-1
 217 113 l 1,10,-1
 554 113 l 1,11,-1
 530 0 l 1,12,-1
 65 0 l 1,13,-1
 115 236 l 1,0,-1
EndSplineSet
EndChar
StartChar: lslash
Encoding: 322 322 166
Width: 632
GlyphClass: 1
Flags: W
LayerCount: 2
Fore
SplineSet
209.5 20 m 128,-1,1
 175 40 175 40 175 88 c 0,2,3
 175 106 175 106 182 141 c 2,4,-1
 207 259 l 1,5,-1
 140 225 l 1,6,-1
 161 322 l 1,7,-1
 227 356 l 1,8,-1
 282 613 l 1,9,-1
 167 613 l 1,10,-1
 186 708 l 1,11,-1
 426 708 l 1,12,-1
 366 424 l 1,13,-1
 494 489 l 1,14,-1
 474 392 l 1,15,-1
 345 327 l 1,16,-1
 311 164 l 2,17,18
 307 148 307 148 307 134 c 0,19,20
 307 115 307 115 320.5 107.5 c 128,-1,21
 334 100 334 100 369 100 c 2,22,-1
 532 100 l 1,23,-1
 512 0 l 1,24,-1
 328 0 l 2,25,0
 244 0 244 0 209.5 20 c 128,-1,1
EndSplineSet
EndChar
StartChar: OE
Encoding: 338 338 70
Width: 632
GlyphClass: 2
Flags: W
AnchorPoint: "Anchor-1" 406 668 basechar 0
AnchorPoint: "Anchor-0" 264 0 basechar 0
LayerCount: 2
Fore
SplineSet
47.5 49 m 128,-1,1
 11 110 11 110 11 207 c 0,2,3
 11 301 11 301 41.5 412 c 128,-1,4
 72 523 72 523 133.5 601.5 c 128,-1,5
 195 680 195 680 284 680 c 0,6,7
 369 680 369 680 405 602 c 1,8,-1
 419 668 l 1,9,-1
 712 668 l 1,10,-1
 691 568 l 1,11,-1
 496 568 l 1,12,-1
 459 393 l 1,13,-1
 579 393 l 1,14,-1
 557 294 l 1,15,-1
 437 294 l 1,16,-1
 397 100 l 1,17,-1
 594 100 l 1,18,-1
 573 0 l 1,19,-1
 277 0 l 1,20,-1
 286 41 l 1,21,22
 233 -12 233 -12 167 -12 c 0,23,0
 84 -12 84 -12 47.5 49 c 128,-1,1
285.5 149.5 m 128,-1,25
 324 217 324 217 343.5 307.5 c 128,-1,26
 363 398 363 398 363 460 c 0,27,28
 363 586 363 586 285 586 c 0,29,30
 231 586 231 586 193 516.5 c 128,-1,31
 155 447 155 447 135.5 356 c 128,-1,32
 116 265 116 265 116 206 c 0,33,34
 116 82 116 82 193 82 c 0,35,24
 247 82 247 82 285.5 149.5 c 128,-1,25
EndSplineSet
EndChar
StartChar: oe
Encoding: 339 339 181
Width: 632
GlyphClass: 2
Flags: W
AnchorPoint: "Anchor-1" 368 496 basechar 0
AnchorPoint: "Anchor-0" 262 0 basechar 0
LayerCount: 2
Fore
SplineSet
288 74 m 1,1,2
 259 31 259 31 222 9.5 c 128,-1,3
 185 -12 185 -12 147 -12 c 0,4,5
 75 -12 75 -12 41.5 38 c 128,-1,6
 8 88 8 88 8 169 c 0,7,8
 8 240 8 240 32 319 c 128,-1,9
 56 398 56 398 106.5 453.5 c 128,-1,10
 157 509 157 509 232 509 c 0,11,12
 324 509 324 509 353 419 c 1,13,14
 410 509 410 509 497 509 c 0,15,16
 568 509 568 509 602 457.5 c 128,-1,17
 636 406 636 406 636 325 c 0,18,19
 636 277 636 277 623 220 c 1,20,-1
 358 220 l 1,21,22
 355 198 355 198 355 177 c 0,23,24
 355 128 355 128 372.5 100 c 128,-1,25
 390 72 390 72 427 72 c 0,26,27
 474 72 474 72 504 122 c 1,28,-1
 583 90 l 1,29,30
 547 39 547 39 504 13.5 c 128,-1,31
 461 -12 461 -12 414 -12 c 0,32,0
 320 -12 320 -12 288 74 c 1,1,2
230 121.5 m 128,-1,34
 258 161 258 161 272 215.5 c 128,-1,35
 286 270 286 270 286 314 c 0,36,37
 286 359 286 359 271 387 c 128,-1,38
 256 415 256 415 222 415 c 0,39,40
 183 415 183 415 155 375.5 c 128,-1,41
 127 336 127 336 113 281.5 c 128,-1,42
 99 227 99 227 99 184 c 0,43,44
 99 139 99 139 114 110.5 c 128,-1,45
 129 82 129 82 162 82 c 0,46,33
 202 82 202 82 230 121.5 c 128,-1,34
545 336 m 0,48,49
 545 375 545 375 530.5 398.5 c 128,-1,50
 516 422 516 422 484 422 c 0,51,52
 445 422 445 422 417 386 c 128,-1,53
 389 350 389 350 372 293 c 1,54,-1
 541 293 l 1,55,47
 545 323 545 323 545 336 c 0,48,49
EndSplineSet
EndChar
StartChar: Scedilla
Encoding: 350 350 80
Width: 632
GlyphClass: 2
Flags: W
AnchorPoint: "Anchor-1" 395 668 basechar 0
LayerCount: 2
Fore
SplineSet
166 -160 m 1,1,-1
 189 -120 l 1,2,3
 202 -128 202 -128 220 -133.5 c 128,-1,4
 238 -139 238 -139 255 -139 c 0,5,6
 273 -139 273 -139 284.5 -130.5 c 128,-1,7
 296 -122 296 -122 296 -107 c 0,8,9
 296 -95 296 -95 287 -88.5 c 128,-1,10
 278 -82 278 -82 263 -82 c 0,11,12
 249 -82 249 -82 237 -84 c 0,13,14
 227 -85 227 -85 221.5 -81 c 128,-1,15
 216 -77 216 -77 216 -70 c 0,16,17
 216 -61 216 -61 223 -53 c 2,18,-1
 258 -10 l 1,19,20
 178 -2 178 -2 119 42 c 128,-1,21
 60 86 60 86 42 156 c 1,22,-1
 161 196 l 1,23,24
 170 147 170 147 212.5 119.5 c 128,-1,25
 255 92 255 92 310 92 c 0,26,27
 366 92 366 92 402.5 120 c 128,-1,28
 439 148 439 148 439 193 c 0,29,30
 439 225 439 225 409.5 246.5 c 128,-1,31
 380 268 380 268 333 283 c 2,32,-1
 270 305 l 1,33,34
 117 353 117 353 117 472 c 0,35,36
 117 533 117 533 153.5 580.5 c 128,-1,37
 190 628 190 628 250 654 c 128,-1,38
 310 680 310 680 380 680 c 0,39,40
 463 680 463 680 526 644 c 128,-1,41
 589 608 589 608 611 540 c 1,42,-1
 493 499 l 1,43,44
 480 535 480 535 445.5 555.5 c 128,-1,45
 411 576 411 576 366 576 c 0,46,47
 318 576 318 576 283 553 c 128,-1,48
 248 530 248 530 248 491 c 0,49,50
 248 462 248 462 266.5 443.5 c 128,-1,51
 285 425 285 425 320 413 c 2,52,-1
 391 388 l 2,53,54
 483 357 483 357 527 316.5 c 128,-1,55
 571 276 571 276 571 214 c 0,56,57
 571 151 571 151 536.5 100.5 c 128,-1,58
 502 50 502 50 441.5 20 c 128,-1,59
 381 -10 381 -10 307 -12 c 1,60,-1
 278 -47 l 1,61,-1
 295 -45 l 2,62,63
 329 -45 329 -45 352.5 -61 c 128,-1,64
 376 -77 376 -77 376 -104 c 0,65,66
 376 -143 376 -143 344.5 -163.5 c 128,-1,67
 313 -184 313 -184 266 -184 c 0,68,0
 209 -184 209 -184 166 -160 c 1,1,-1
EndSplineSet
Substitution2: "'locl' Localized Forms in Latin lookup 4 subtable" uni0218
AlternateSubs2: "'aalt' Access All Alternates in Latin lookup 0 subtable" uni0218
EndChar
StartChar: Uring
Encoding: 366 366 95
Width: 632
GlyphClass: 2
Flags: W
AnchorPoint: "Anchor-3" 722 668 basechar 0
AnchorPoint: "Anchor-1" 428 907 basechar 0
LayerCount: 2
Fore
SplineSet
121 36.5 m 128,-1,1
 59 85 59 85 59 186 c 0,2,3
 59 231 59 231 71 285 c 2,4,-1
 152 668 l 1,5,-1
 281 668 l 1,6,-1
 193 256 l 2,7,8
 186 219 186 219 186 198 c 0,9,10
 186 93 186 93 304 93 c 0,11,12
 360 93 360 93 391 127.5 c 128,-1,13
 422 162 422 162 436 230 c 2,14,-1
 529 668 l 1,15,-1
 658 668 l 1,16,-1
 566 233 l 2,17,18
 539 107 539 107 477.5 47.5 c 128,-1,19
 416 -12 416 -12 306 -12 c 0,20,0
 183 -12 183 -12 121 36.5 c 128,-1,1
316.5 698 m 128,-1,22
 281 734 281 734 281 785 c 0,23,24
 281 835 281 835 316.5 871 c 128,-1,25
 352 907 352 907 403 907 c 256,26,27
 454 907 454 907 489.5 871 c 128,-1,28
 525 835 525 835 525 785 c 0,29,30
 525 734 525 734 489.5 698 c 128,-1,31
 454 662 454 662 403 662 c 256,32,21
 352 662 352 662 316.5 698 c 128,-1,22
437.5 750.5 m 128,-1,34
 452 765 452 765 452 785 c 256,35,36
 452 805 452 805 437.5 819.5 c 128,-1,37
 423 834 423 834 402 834 c 0,38,39
 382 834 382 834 367.5 819.5 c 128,-1,40
 353 805 353 805 353 785 c 256,41,42
 353 765 353 765 367.5 750.5 c 128,-1,43
 382 736 382 736 402 736 c 0,44,33
 423 736 423 736 437.5 750.5 c 128,-1,34
EndSplineSet
EndChar
StartChar: Uogonek
Encoding: 370 370 94
Width: 632
GlyphClass: 2
Flags: W
AnchorPoint: "Anchor-3" 722 668 basechar 0
AnchorPoint: "Anchor-1" 403 668 basechar 0
LayerCount: 2
Fore
SplineSet
298.5 -152 m 128,-1,1
 258 -132 258 -132 258 -91 c 0,2,3
 258 -51 258 -51 300 -11 c 1,4,5
 60 -8 60 -8 60 192 c 0,6,7
 60 233 60 233 71 285 c 2,8,-1
 152 668 l 1,9,-1
 281 668 l 1,10,-1
 193 256 l 2,11,12
 186 219 186 219 186 198 c 0,13,14
 186 93 186 93 304 93 c 0,15,16
 360 93 360 93 391 127.5 c 128,-1,17
 422 162 422 162 436 230 c 2,18,-1
 529 668 l 1,19,-1
 658 668 l 1,20,-1
 566 233 l 2,21,22
 531 66 531 66 430 15 c 0,23,24
 402 1 402 1 383.5 -23 c 128,-1,25
 365 -47 365 -47 365 -70 c 0,26,27
 365 -88 365 -88 378 -97.5 c 128,-1,28
 391 -107 391 -107 414 -107 c 0,29,30
 422 -107 422 -107 450 -103 c 1,31,-1
 436 -169 l 1,32,33
 415 -172 415 -172 401 -172 c 0,34,0
 339 -172 339 -172 298.5 -152 c 128,-1,1
EndSplineSet
EndChar
StartChar: gravecomb
Encoding: 768 768 340
Width: 0
GlyphClass: 4
Flags: W
AnchorPoint: "Anchor-5" 461 718 basemark 0
AnchorPoint: "Anchor-5" 414 496 mark 0
AnchorPoint: "Anchor-1" 414 496 mark 0
LayerCount: 2
Fore
SplineSet
317 641.5 m 128,-1,1
 311 652 311 652 311 663 c 0,2,3
 311 684 311 684 327 701 c 128,-1,4
 343 718 343 718 363 718 c 0,5,6
 376 718 376 718 384.5 710.5 c 128,-1,7
 393 703 393 703 404 685 c 2,8,-1
 470 573 l 1,9,-1
 385 573 l 1,10,-1
 337 617 l 2,11,0
 323 631 323 631 317 641.5 c 128,-1,1
EndSplineSet
Substitution2: "Single Substitution lookup 12 subtable" gravecomb.case
Substitution2: "'case' Case-Sensitive Forms in Latin lookup 9 subtable" gravecomb.case
AlternateSubs2: "'aalt' Access All Alternates in Latin lookup 0 subtable" gravecomb.case
EndChar
StartChar: acutecomb
Encoding: 769 769 342
Width: 0
GlyphClass: 4
Flags: W
AnchorPoint: "Anchor-5" 371 718 basemark 0
AnchorPoint: "Anchor-5" 324 496 mark 0
AnchorPoint: "Anchor-1" 324 496 mark 0
LayerCount: 2
Fore
SplineSet
437 710 m 128,-1,1
 451 718 451 718 468 718 c 0,2,3
 488 718 488 718 499.5 708 c 128,-1,4
 511 698 511 698 511 682 c 0,5,6
 511 663 511 663 499 649 c 128,-1,7
 487 635 487 635 461 617 c 2,8,-1
 394 573 l 1,9,-1
 291 573 l 1,10,-1
 405 685 l 2,11,0
 423 702 423 702 437 710 c 128,-1,1
EndSplineSet
Substitution2: "Single Substitution lookup 12 subtable" acutecomb.case
Substitution2: "'case' Case-Sensitive Forms in Latin lookup 9 subtable" acutecomb.case
AlternateSubs2: "'aalt' Access All Alternates in Latin lookup 0 subtable" acutecomb.case
EndChar
StartChar: tildecomb
Encoding: 771 771 355
Width: 0
GlyphClass: 4
Flags: W
AnchorPoint: "Anchor-5" 408 679 basemark 0
AnchorPoint: "Anchor-5" 369 496 mark 0
AnchorPoint: "Anchor-1" 369 496 mark 0
LayerCount: 2
Fore
SplineSet
414.5 577 m 128,-1,1
 398 583 398 583 381 594 c 0,2,3
 367 602 367 602 358.5 605.5 c 128,-1,4
 350 609 350 609 340 609 c 0,5,6
 323 609 323 609 309 600 c 128,-1,7
 295 591 295 591 288 574 c 1,8,-1
 215 574 l 1,9,10
 234 625 234 625 268.5 651.5 c 128,-1,11
 303 678 303 678 350 678 c 0,12,13
 371 678 371 678 385.5 672 c 128,-1,14
 400 666 400 666 416 655 c 0,15,16
 429 646 429 646 439 642 c 128,-1,17
 449 638 449 638 462 638 c 256,18,19
 475 638 475 638 485.5 643.5 c 128,-1,20
 496 649 496 649 509 661 c 0,21,22
 528 680 528 680 545 680 c 0,23,24
 557 680 557 680 564.5 672.5 c 128,-1,25
 572 665 572 665 572 654 c 0,26,27
 572 635 572 635 554 615.5 c 128,-1,28
 536 596 536 596 508.5 583.5 c 128,-1,29
 481 571 481 571 455 571 c 0,30,0
 431 571 431 571 414.5 577 c 128,-1,1
EndSplineSet
Substitution2: "Single Substitution lookup 12 subtable" tildecomb.case
Substitution2: "'case' Case-Sensitive Forms in Latin lookup 9 subtable" tildecomb.case
AlternateSubs2: "'aalt' Access All Alternates in Latin lookup 0 subtable" tildecomb.case
EndChar
StartChar: uni0306
Encoding: 774 774 351
Width: 0
GlyphClass: 4
Flags: W
AnchorPoint: "Anchor-5" 409 684 basemark 0
AnchorPoint: "Anchor-5" 369 496 mark 0
AnchorPoint: "Anchor-1" 369 496 mark 0
LayerCount: 2
Fore
SplineSet
306.5 597 m 128,-1,1
 274 629 274 629 271 682 c 1,2,-1
 341 682 l 1,3,4
 345 660 345 660 362 647.5 c 128,-1,5
 379 635 379 635 402 635 c 0,6,7
 430 635 430 635 450 649.5 c 128,-1,8
 470 664 470 664 475 682 c 1,9,-1
 546 682 l 1,10,11
 531 630 531 630 490 597.5 c 128,-1,12
 449 565 449 565 393 565 c 0,13,0
 339 565 339 565 306.5 597 c 128,-1,1
EndSplineSet
Substitution2: "Single Substitution lookup 12 subtable" uni0306.case
Substitution2: "'case' Case-Sensitive Forms in Latin lookup 9 subtable" uni0306.case
AlternateSubs2: "'aalt' Access All Alternates in Latin lookup 0 subtable" uni0306.case
EndChar
StartChar: uni0307
Encoding: 775 775 337
Width: 0
GlyphClass: 4
Flags: W
AnchorPoint: "Anchor-5" 415 712 basemark 0
AnchorPoint: "Anchor-5" 368 496 mark 0
AnchorPoint: "Anchor-1" 368 496 mark 0
LayerCount: 2
Fore
SplineSet
354 598.5 m 128,-1,1
 334 618 334 618 334 646 c 0,2,3
 334 673 334 673 354 692.5 c 128,-1,4
 374 712 374 712 401 712 c 256,5,6
 428 712 428 712 447.5 692.5 c 128,-1,7
 467 673 467 673 467 646 c 0,8,9
 467 618 467 618 447.5 598.5 c 128,-1,10
 428 579 428 579 401 579 c 256,11,0
 374 579 374 579 354 598.5 c 128,-1,1
EndSplineSet
Substitution2: "Single Substitution lookup 12 subtable" uni0307.case
Substitution2: "'case' Case-Sensitive Forms in Latin lookup 9 subtable" uni0307.case
AlternateSubs2: "'aalt' Access All Alternates in Latin lookup 0 subtable" uni0307.case
EndChar
StartChar: uni0308
Encoding: 776 776 335
Width: 0
GlyphClass: 4
Flags: W
AnchorPoint: "Anchor-5" 415 712 basemark 0
AnchorPoint: "Anchor-5" 370 496 mark 0
AnchorPoint: "Anchor-1" 370 496 mark 0
LayerCount: 2
Fore
SplineSet
450.5 599.5 m 128,-1,1
 431 619 431 619 431 646 c 256,2,3
 431 673 431 673 450.5 692.5 c 128,-1,4
 470 712 470 712 497 712 c 256,5,6
 524 712 524 712 543.5 692.5 c 128,-1,7
 563 673 563 673 563 646 c 256,8,9
 563 619 563 619 543.5 599.5 c 128,-1,10
 524 580 524 580 497 580 c 256,11,0
 470 580 470 580 450.5 599.5 c 128,-1,1
257.5 599.5 m 128,-1,13
 238 619 238 619 238 646 c 256,14,15
 238 673 238 673 257.5 692.5 c 128,-1,16
 277 712 277 712 304 712 c 0,17,18
 332 712 332 712 351.5 692.5 c 128,-1,19
 371 673 371 673 371 646 c 256,20,21
 371 619 371 619 351.5 599.5 c 128,-1,22
 332 580 332 580 304 580 c 0,23,12
 277 580 277 580 257.5 599.5 c 128,-1,13
EndSplineSet
Substitution2: "Single Substitution lookup 12 subtable" uni0308.case
Substitution2: "'case' Case-Sensitive Forms in Latin lookup 9 subtable" uni0308.case
AlternateSubs2: "'aalt' Access All Alternates in Latin lookup 0 subtable" uni0308.case
EndChar
StartChar: uni0327
Encoding: 807 807 360
Width: 0
GlyphClass: 4
Flags: W
AnchorPoint: "Anchor-4" 217 -184 basemark 0
AnchorPoint: "Anchor-4" 256 0 mark 0
AnchorPoint: "Anchor-0" 256 0 mark 0
LayerCount: 2
Fore
SplineSet
129 -160 m 1,1,-1
 152 -120 l 1,2,3
 165 -128 165 -128 183 -133.5 c 128,-1,4
 201 -139 201 -139 218 -139 c 0,5,6
 236 -139 236 -139 247.5 -130.5 c 128,-1,7
 259 -122 259 -122 259 -107 c 0,8,9
 259 -95 259 -95 250 -88.5 c 128,-1,10
 241 -82 241 -82 226 -82 c 0,11,12
 212 -82 212 -82 200 -84 c 0,13,14
 189 -85 189 -85 183.5 -81 c 128,-1,15
 178 -77 178 -77 178 -70 c 0,16,17
 178 -62 178 -62 185 -53 c 2,18,-1
 250 26 l 1,19,-1
 284 4 l 1,20,-1
 241 -47 l 1,21,22
 250 -46 250 -46 258 -45 c 0,23,24
 292 -45 292 -45 315.5 -61 c 128,-1,25
 339 -77 339 -77 339 -104 c 0,26,27
 339 -143 339 -143 307.5 -163.5 c 128,-1,28
 276 -184 276 -184 228 -184 c 0,29,0
 172 -184 172 -184 129 -160 c 1,1,-1
EndSplineSet
EndChar
StartChar: uni0394
Encoding: 916 916 225
Width: 632
GlyphClass: 1
Flags: W
LayerCount: 2
Fore
SplineSet
337 668 m 1,0,-1
 473 668 l 1,1,-1
 547 0 l 1,2,-1
 -21 0 l 1,3,-1
 337 668 l 1,0,-1
424 105 m 1,4,-1
 381 536 l 1,5,-1
 377 536 l 1,6,-1
 151 105 l 1,7,-1
 424 105 l 1,4,-1
EndSplineSet
EndChar
StartChar: uni03BC
Encoding: 956 956 227
Width: 632
GlyphClass: 1
Flags: W
LayerCount: 2
Fore
SplineSet
132 496 m 1,0,-1
 256 496 l 1,1,-1
 196 212 l 2,2,3
 190 185 190 185 190 162 c 0,4,5
 190 86 190 86 261 86 c 0,6,7
 306 86 306 86 343.5 127.5 c 128,-1,8
 381 169 381 169 396 240 c 2,9,-1
 450 496 l 1,10,-1
 575 496 l 1,11,-1
 504 161 l 2,12,13
 500 144 500 144 500 130 c 0,14,15
 500 113 500 113 510 107 c 128,-1,16
 520 101 520 101 545 101 c 2,17,-1
 561 101 l 1,18,-1
 540 0 l 1,19,-1
 476 0 l 2,20,21
 416 0 416 0 392.5 17 c 128,-1,22
 369 34 369 34 366 68 c 1,23,24
 334 27 334 27 293 7.5 c 128,-1,25
 252 -12 252 -12 213 -12 c 256,26,27
 174 -12 174 -12 153 8 c 1,28,-1
 116 -162 l 1,29,-1
 -8 -162 l 1,30,-1
 132 496 l 1,0,-1
EndSplineSet
EndChar
StartChar: uni1E9E
Encoding: 7838 7838 82
Width: 632
GlyphClass: 1
Flags: W
LayerCount: 2
Fore
SplineSet
274 22 m 128,-1,1
 233 56 233 56 222 110 c 1,2,-1
 319 144 l 1,3,4
 329 90 329 90 390 90 c 0,5,6
 429 90 429 90 453.5 124.5 c 128,-1,7
 478 159 478 159 478 204 c 0,8,9
 478 239 478 239 459.5 261 c 128,-1,10
 441 283 441 283 404 283 c 0,11,12
 392 283 392 283 369 278 c 1,13,-1
 341 356 l 1,14,-1
 537 569 l 1,15,16
 471 580 471 580 420 580 c 0,17,18
 336 580 336 580 288 547.5 c 128,-1,19
 240 515 240 515 224 439 c 2,20,-1
 131 0 l 1,21,-1
 3 0 l 1,22,-1
 104 476 l 2,23,24
 126 585 126 585 198.5 632.5 c 128,-1,25
 271 680 271 680 415 680 c 0,26,27
 544 680 544 680 668 652 c 1,28,-1
 646 545 l 1,29,-1
 473 358 l 1,30,31
 528 347 528 347 561.5 306 c 128,-1,32
 595 265 595 265 595 207 c 0,33,34
 595 147 595 147 567.5 97 c 128,-1,35
 540 47 540 47 491 17.5 c 128,-1,36
 442 -12 442 -12 381 -12 c 0,37,0
 315 -12 315 -12 274 22 c 128,-1,1
EndSplineSet
EndChar
StartChar: endash
Encoding: 8211 8211 265
Width: 632
GlyphClass: 1
Flags: W
LayerCount: 2
Fore
SplineSet
111 302 m 1,0,-1
 546 302 l 1,1,-1
 522 195 l 1,2,-1
 88 195 l 1,3,-1
 111 302 l 1,0,-1
EndSplineSet
EndChar
StartChar: quoteleft
Encoding: 8216 8216 278
Width: 632
GlyphClass: 1
Flags: W
LayerCount: 2
Fore
SplineSet
290.5 372.5 m 128,-1,1
 264 398 264 398 264 433 c 0,2,3
 264 463 264 463 285 495 c 2,4,-1
 397 672 l 1,5,-1
 485 672 l 1,6,-1
 390 523 l 1,7,8
 417 513 417 513 432 489.5 c 128,-1,9
 447 466 447 466 447 439 c 0,10,11
 447 401 447 401 420 374 c 128,-1,12
 393 347 393 347 354 347 c 0,13,0
 317 347 317 347 290.5 372.5 c 128,-1,1
EndSplineSet
EndChar
StartChar: quotedblright
Encoding: 8221 8221 277
Width: 632
GlyphClass: 1
Flags: W
LayerCount: 2
Fore
SplineSet
434.5 542 m 128,-1,1
 419 564 419 564 419 591 c 0,2,3
 419 628 419 628 445 654 c 128,-1,4
 471 680 471 680 508 680 c 0,5,6
 546 680 546 680 571 654.5 c 128,-1,7
 596 629 596 629 596 594 c 0,8,9
 596 565 596 565 577 536 c 2,10,-1
 468 367 l 1,11,-1
 381 367 l 1,12,-1
 475 509 l 1,13,0
 450 520 450 520 434.5 542 c 128,-1,1
198.5 542 m 128,-1,15
 183 564 183 564 183 591 c 0,16,17
 183 628 183 628 209 654 c 128,-1,18
 235 680 235 680 272 680 c 0,19,20
 310 680 310 680 335 654.5 c 128,-1,21
 360 629 360 629 360 594 c 0,22,23
 360 565 360 565 341 536 c 2,24,-1
 232 367 l 1,25,-1
 145 367 l 1,26,-1
 239 509 l 1,27,14
 214 520 214 520 198.5 542 c 128,-1,15
EndSplineSet
EndChar
StartChar: quotedblbase
Encoding: 8222 8222 275
Width: 632
GlyphClass: 1
Flags: W
LayerCount: 2
Fore
SplineSet
87.5 20.5 m 128,-1,1
 72 43 72 43 72 70 c 0,2,3
 72 107 72 107 98 133 c 128,-1,4
 124 159 124 159 161 159 c 0,5,6
 199 159 199 159 224 133.5 c 128,-1,7
 249 108 249 108 249 73 c 0,8,9
 249 44 249 44 230 15 c 2,10,-1
 121 -155 l 1,11,-1
 34 -155 l 1,12,-1
 128 -12 l 1,13,0
 103 -2 103 -2 87.5 20.5 c 128,-1,1
323.5 20.5 m 128,-1,15
 308 43 308 43 308 70 c 0,16,17
 308 107 308 107 334 133 c 128,-1,18
 360 159 360 159 397 159 c 0,19,20
 435 159 435 159 460 133.5 c 128,-1,21
 485 108 485 108 485 73 c 0,22,23
 485 44 485 44 466 15 c 2,24,-1
 357 -155 l 1,25,-1
 270 -155 l 1,26,-1
 364 -12 l 1,27,14
 339 -2 339 -2 323.5 20.5 c 128,-1,15
EndSplineSet
EndChar
StartChar: daggerdbl
Encoding: 8225 8225 300
Width: 632
GlyphClass: 1
Flags: W
LayerCount: 2
Fore
SplineSet
243 172 m 1,0,-1
 56 172 l 1,1,-1
 77 272 l 1,2,-1
 264 272 l 1,3,-1
 290 396 l 1,4,-1
 103 396 l 1,5,-1
 124 496 l 1,6,-1
 311 496 l 1,7,-1
 348 668 l 1,8,-1
 464 668 l 1,9,-1
 427 496 l 1,10,-1
 614 496 l 1,11,-1
 593 396 l 1,12,-1
 406 396 l 1,13,-1
 380 272 l 1,14,-1
 567 272 l 1,15,-1
 546 172 l 1,16,-1
 359 172 l 1,17,-1
 322 0 l 1,18,-1
 206 0 l 1,19,-1
 243 172 l 1,0,-1
EndSplineSet
EndChar
StartChar: perthousand
Encoding: 8240 8240 333
Width: 632
GlyphClass: 1
Flags: W
LayerCount: 2
Fore
SplineSet
177 438.5 m 128,-1,1
 147 456 147 456 129.5 486.5 c 128,-1,2
 112 517 112 517 112 552 c 256,3,4
 112 587 112 587 129.5 617 c 128,-1,5
 147 647 147 647 177 664.5 c 128,-1,6
 207 682 207 682 242 682 c 256,7,8
 277 682 277 682 307.5 664.5 c 128,-1,9
 338 647 338 647 355.5 617 c 128,-1,10
 373 587 373 587 373 552 c 256,11,12
 373 517 373 517 355.5 486.5 c 128,-1,13
 338 456 338 456 307.5 438.5 c 128,-1,14
 277 421 277 421 242 421 c 256,15,0
 207 421 207 421 177 438.5 c 128,-1,1
285 507.5 m 128,-1,17
 303 526 303 526 303 552 c 256,18,19
 303 578 303 578 285 596 c 128,-1,20
 267 614 267 614 242 614 c 256,21,22
 217 614 217 614 199 596 c 128,-1,23
 181 578 181 578 181 552 c 256,24,25
 181 526 181 526 199 507.5 c 128,-1,26
 217 489 217 489 242 489 c 256,27,16
 267 489 267 489 285 507.5 c 128,-1,17
85 3.5 m 128,-1,29
 55 21 55 21 37.5 51.5 c 128,-1,30
 20 82 20 82 20 117 c 256,31,32
 20 152 20 152 37.5 182 c 128,-1,33
 55 212 55 212 85 229.5 c 128,-1,34
 115 247 115 247 150 247 c 256,35,36
 185 247 185 247 215.5 229.5 c 128,-1,37
 246 212 246 212 263.5 182 c 128,-1,38
 281 152 281 152 281 117 c 256,39,40
 281 82 281 82 263.5 51.5 c 128,-1,41
 246 21 246 21 215.5 3.5 c 128,-1,42
 185 -14 185 -14 150 -14 c 256,43,28
 115 -14 115 -14 85 3.5 c 128,-1,29
193 72.5 m 128,-1,45
 211 91 211 91 211 117 c 256,46,47
 211 143 211 143 193 161 c 128,-1,48
 175 179 175 179 150 179 c 256,49,50
 125 179 125 179 107 161 c 128,-1,51
 89 143 89 143 89 117 c 256,52,53
 89 91 89 91 107 72.5 c 128,-1,54
 125 54 125 54 150 54 c 256,55,44
 175 54 175 54 193 72.5 c 128,-1,45
367 3.5 m 128,-1,57
 337 21 337 21 319.5 51.5 c 128,-1,58
 302 82 302 82 302 117 c 256,59,60
 302 152 302 152 319.5 182 c 128,-1,61
 337 212 337 212 367 229.5 c 128,-1,62
 397 247 397 247 432 247 c 256,63,64
 467 247 467 247 497.5 229.5 c 128,-1,65
 528 212 528 212 545.5 182 c 128,-1,66
 563 152 563 152 563 117 c 256,67,68
 563 82 563 82 545.5 51.5 c 128,-1,69
 528 21 528 21 497.5 3.5 c 128,-1,70
 467 -14 467 -14 432 -14 c 256,71,56
 397 -14 397 -14 367 3.5 c 128,-1,57
475 72.5 m 128,-1,73
 493 91 493 91 493 117 c 256,74,75
 493 143 493 143 475 161 c 128,-1,76
 457 179 457 179 432 179 c 256,77,78
 407 179 407 179 389 161 c 128,-1,79
 371 143 371 143 371 117 c 256,80,81
 371 91 371 91 389 72.5 c 128,-1,82
 407 54 407 54 432 54 c 256,83,72
 457 54 457 54 475 72.5 c 128,-1,73
67 335 m 1,84,-1
 645 513 l 1,85,-1
 626 427 l 1,86,-1
 49 250 l 1,87,-1
 67 335 l 1,84,-1
EndSplineSet
EndChar
StartChar: uni20B9
Encoding: 8377 8377 306
Width: 632
GlyphClass: 1
Flags: W
LayerCount: 2
Fore
SplineSet
88 290 m 1,0,-1
 101 349 l 1,1,-1
 271 349 l 2,2,3
 319 349 319 349 349.5 369 c 128,-1,4
 380 389 380 389 390 425 c 1,5,-1
 118 425 l 1,6,-1
 131 489 l 1,7,-1
 398 489 l 1,8,9
 390 566 390 566 264 566 c 2,10,-1
 148 566 l 1,11,-1
 169 668 l 1,12,-1
 658 668 l 1,13,-1
 644 604 l 1,14,-1
 469 604 l 1,15,16
 523 559 523 559 527 489 c 1,17,-1
 620 489 l 1,18,-1
 607 425 l 1,19,-1
 521 425 l 1,20,21
 507 349 507 349 447 302.5 c 128,-1,22
 387 256 387 256 294 250 c 1,23,-1
 266 250 l 1,24,-1
 466 0 l 1,25,-1
 315 0 l 1,26,-1
 88 290 l 1,0,-1
EndSplineSet
EndChar
StartChar: trademark
Encoding: 8482 8482 294
Width: 632
GlyphClass: 1
Flags: W
LayerCount: 2
Fore
SplineSet
167 604 m 1,0,-1
 82 604 l 1,1,-1
 96 668 l 1,2,-1
 334 668 l 1,3,-1
 320 604 l 1,4,-1
 236 604 l 1,5,-1
 179 343 l 1,6,-1
 111 343 l 1,7,-1
 167 604 l 1,0,-1
367 668 m 1,8,-1
 472 668 l 1,9,-1
 487 440 l 1,10,-1
 491 440 l 1,11,-1
 605 668 l 1,12,-1
 714 668 l 1,13,-1
 644 343 l 1,14,-1
 577 343 l 1,15,-1
 629 587 l 1,16,-1
 625 587 l 1,17,-1
 501 343 l 1,18,-1
 440 343 l 1,19,-1
 419 587 l 1,20,-1
 415 587 l 1,21,-1
 363 343 l 1,22,-1
 297 343 l 1,23,-1
 367 668 l 1,8,-1
EndSplineSet
EndChar
StartChar: partialdiff
Encoding: 8706 8706 331
Width: 632
GlyphClass: 1
Flags: W
LayerCount: 2
Fore
SplineSet
169.5 13 m 128,-1,1
 118 38 118 38 89.5 85 c 128,-1,2
 61 132 61 132 61 194 c 0,3,4
 61 266 61 266 93.5 329 c 128,-1,5
 126 392 126 392 185 430 c 128,-1,6
 244 468 244 468 318 468 c 0,7,8
 378 468 378 468 423 440 c 128,-1,9
 468 412 468 412 482 358 c 1,10,11
 487 429 487 429 452.5 478.5 c 128,-1,12
 418 528 418 528 356 553 c 128,-1,13
 294 578 294 578 216 581 c 1,14,-1
 236 680 l 1,15,16
 397 665 397 665 490 593.5 c 128,-1,17
 583 522 583 522 583 385 c 0,18,19
 583 298 583 298 554 206.5 c 128,-1,20
 525 115 525 115 458 51.5 c 128,-1,21
 391 -12 391 -12 286 -12 c 0,22,0
 221 -12 221 -12 169.5 13 c 128,-1,1
371 114.5 m 128,-1,24
 403 142 403 142 418.5 181.5 c 128,-1,25
 434 221 434 221 434 257 c 0,26,27
 434 307 434 307 405.5 337.5 c 128,-1,28
 377 368 377 368 327 368 c 0,29,30
 283 368 283 368 250.5 343 c 128,-1,31
 218 318 218 318 201.5 279.5 c 128,-1,32
 185 241 185 241 185 202 c 0,33,34
 185 152 185 152 213.5 119.5 c 128,-1,35
 242 87 242 87 292 87 c 0,36,23
 339 87 339 87 371 114.5 c 128,-1,24
EndSplineSet
EndChar
StartChar: uni2215
Encoding: 8725 8725 310
Width: 632
GlyphClass: 1
Flags: W
LayerCount: 2
Fore
SplineSet
545 668 m 1,0,-1
 685 668 l 1,1,-1
 124 0 l 1,2,-1
 -17 0 l 1,3,-1
 545 668 l 1,0,-1
EndSplineSet
EndChar
StartChar: integral
Encoding: 8747 8747 327
Width: 632
GlyphClass: 1
Flags: W
LayerCount: 2
Fore
SplineSet
78.5 -155 m 128,-1,1
 50 -137 50 -137 50 -103 c 0,2,3
 50 -79 50 -79 67 -60.5 c 128,-1,4
 84 -42 84 -42 111 -42 c 0,5,6
 134 -42 134 -42 147.5 -55 c 128,-1,7
 161 -68 161 -68 161 -90 c 0,8,9
 161 -105 161 -105 156 -116 c 1,10,11
 170 -110 170 -110 180.5 -89.5 c 128,-1,12
 191 -69 191 -69 200 -28 c 2,13,-1
 310 463 l 2,14,15
 359 681 359 681 493 681 c 0,16,17
 531 681 531 681 559.5 663 c 128,-1,18
 588 645 588 645 588 611 c 0,19,20
 588 587 588 587 571 568.5 c 128,-1,21
 554 550 554 550 527 550 c 0,22,23
 504 550 504 550 490.5 562.5 c 128,-1,24
 477 575 477 575 477 597 c 0,25,26
 477 612 477 612 482 623 c 1,27,28
 468 618 468 618 457.5 597.5 c 128,-1,29
 447 577 447 577 438 536 c 2,30,-1
 328 45 l 2,31,32
 279 -173 279 -173 145 -173 c 0,33,0
 107 -173 107 -173 78.5 -155 c 128,-1,1
EndSplineSet
EndChar
StartChar: approxequal
Encoding: 8776 8776 322
Width: 632
GlyphClass: 1
Flags: W
LayerCount: 2
Fore
SplineSet
204 235 m 0,1,2
 232 235 232 235 255 226 c 128,-1,3
 278 217 278 217 306 201 c 0,4,5
 333 187 333 187 350 180 c 128,-1,6
 367 173 367 173 387 173 c 0,7,8
 413 173 413 173 430.5 188.5 c 128,-1,9
 448 204 448 204 457 239 c 1,10,-1
 538 209 l 1,11,12
 495 70 495 70 387 70 c 0,13,14
 359 70 359 70 338 78 c 128,-1,15
 317 86 317 86 285 103 c 0,16,17
 258 117 258 117 241 124 c 128,-1,18
 224 131 224 131 204 131 c 0,19,20
 151 131 151 131 134 65 c 1,21,-1
 53 95 l 1,22,0
 96 235 96 235 204 235 c 0,1,2
247 435 m 0,24,25
 275 435 275 435 298 426.5 c 128,-1,26
 321 418 321 418 350 402 c 0,27,28
 374 388 374 388 392 381 c 128,-1,29
 410 374 410 374 430 374 c 0,30,31
 456 374 456 374 473.5 389.5 c 128,-1,32
 491 405 491 405 500 440 c 1,33,-1
 581 410 l 1,34,35
 560 343 560 343 523.5 306.5 c 128,-1,36
 487 270 487 270 430 270 c 0,37,38
 402 270 402 270 379 279 c 128,-1,39
 356 288 356 288 328 304 c 0,40,41
 301 319 301 319 284.5 325.5 c 128,-1,42
 268 332 268 332 248 332 c 0,43,44
 193 332 193 332 178 266 c 1,45,-1
 96 296 l 1,46,23
 139 435 139 435 247 435 c 0,24,25
EndSplineSet
EndChar
StartChar: lessequal
Encoding: 8804 8804 320
Width: 632
GlyphClass: 1
Flags: W
LayerCount: 2
Fore
SplineSet
71 262 m 1,0,-1
 93 366 l 1,1,-1
 616 501 l 1,2,-1
 592 388 l 1,3,-1
 228 310 l 1,4,-1
 559 231 l 1,5,-1
 537 127 l 1,6,-1
 71 262 l 1,0,-1
38 106 m 1,7,-1
 532 106 l 1,8,-1
 510 0 l 1,9,-1
 15 0 l 1,10,-1
 38 106 l 1,7,-1
EndSplineSet
EndChar
StartChar: greaterequal
Encoding: 8805 8805 319
Width: 632
GlyphClass: 1
Flags: W
LayerCount: 2
Fore
SplineSet
67 240 m 1,0,-1
 429 318 l 1,1,-1
 100 396 l 1,2,-1
 122 501 l 1,3,-1
 588 366 l 1,4,-1
 565 262 l 1,5,-1
 43 127 l 1,6,-1
 67 240 l 1,0,-1
38 106 m 1,7,-1
 532 106 l 1,8,-1
 510 0 l 1,9,-1
 16 0 l 1,10,-1
 38 106 l 1,7,-1
EndSplineSet
EndChar
StartChar: lozenge
Encoding: 9674 9674 334
Width: 632
GlyphClass: 1
Flags: W
LayerCount: 2
Fore
SplineSet
83 314 m 1,0,-1
 415 710 l 1,1,-1
 577 314 l 1,2,-1
 246 -83 l 1,3,-1
 83 314 l 1,0,-1
463 324 m 1,4,-1
 381 525 l 1,5,-1
 197 305 l 1,6,-1
 280 103 l 1,7,-1
 463 324 l 1,4,-1
EndSplineSet
EndChar
StartChar: musicalnote
Encoding: 9834 9834 287
Width: 632
GlyphClass: 1
Flags: W
LayerCount: 2
Fore
SplineSet
103.5 26 m 128,-1,1
 68 62 68 62 68 113 c 0,2,3
 68 146 68 146 85 174.5 c 128,-1,4
 102 203 102 203 130.5 220 c 128,-1,5
 159 237 159 237 192 237 c 0,6,7
 226 237 226 237 254 220 c 1,8,-1
 254 668 l 1,9,-1
 324 668 l 1,10,11
 327 639 327 639 340 617 c 128,-1,12
 353 595 353 595 374.5 575.5 c 128,-1,13
 396 556 396 556 439 521 c 0,14,15
 498 472 498 472 530.5 430.5 c 128,-1,16
 563 389 563 389 563 335 c 0,17,18
 563 272 563 272 484 192 c 1,19,-1
 477 193 l 1,20,21
 459 348 459 348 324 407 c 1,22,-1
 324 152 l 2,23,24
 324 72 324 72 286 31 c 128,-1,25
 248 -10 248 -10 189 -10 c 0,26,0
 139 -10 139 -10 103.5 26 c 128,-1,1
EndSplineSet
EndChar
StartChar: acutecomb.case
Encoding: 65544 -1 343
Width: 0
GlyphClass: 4
Flags: W
AnchorPoint: "Anchor-5" 399 874 basemark 0
AnchorPoint: "Anchor-5" 355 668 mark 0
AnchorPoint: "Anchor-1" 355 668 mark 0
LayerCount: 2
Fore
SplineSet
474.5 861.5 m 128,-1,1
 490 869 490 869 507 869 c 0,2,3
 525 869 525 869 536.5 859 c 128,-1,4
 548 849 548 849 548 834 c 0,5,6
 548 815 548 815 535.5 801 c 128,-1,7
 523 787 523 787 497 772 c 2,8,-1
 429 733 l 1,9,-1
 319 733 l 1,10,-1
 439 836 l 2,11,0
 459 854 459 854 474.5 861.5 c 128,-1,1
EndSplineSet
EndChar
StartChar: uni0307.case
Encoding: 65541 -1 338
Width: 0
GlyphClass: 4
Flags: W
AnchorPoint: "Anchor-5" 445 858 basemark 0
AnchorPoint: "Anchor-5" 405 668 mark 0
AnchorPoint: "Anchor-1" 405 668 mark 0
LayerCount: 2
Fore
SplineSet
384.5 743.5 m 128,-1,1
 365 763 365 763 365 791 c 0,2,3
 365 818 365 818 384.5 838 c 128,-1,4
 404 858 404 858 431 858 c 256,5,6
 458 858 458 858 478 838 c 128,-1,7
 498 818 498 818 498 791 c 0,8,9
 498 763 498 763 478 743.5 c 128,-1,10
 458 724 458 724 431 724 c 256,11,0
 404 724 404 724 384.5 743.5 c 128,-1,1
EndSplineSet
EndChar
StartChar: uni0307.large
Encoding: 65542 -1 339
Width: 0
GlyphClass: 4
Flags: W
AnchorPoint: "Anchor-5" 422 740 basemark 0
AnchorPoint: "Anchor-5" 369 496 mark 0
AnchorPoint: "Anchor-1" 369 496 mark 0
LayerCount: 2
Fore
SplineSet
349 607 m 128,-1,1
 326 630 326 630 326 662 c 256,2,3
 326 694 326 694 349 717 c 128,-1,4
 372 740 372 740 404 740 c 256,5,6
 436 740 436 740 459 717 c 128,-1,7
 482 694 482 694 482 662 c 256,8,9
 482 630 482 630 459 607 c 128,-1,10
 436 584 436 584 404 584 c 256,11,0
 372 584 372 584 349 607 c 128,-1,1
EndSplineSet
EndChar
StartChar: uni030A.case
Encoding: 65550 -1 354
Width: 0
GlyphClass: 4
Flags: W
AnchorPoint: "Anchor-5" 444 854 basemark 0
AnchorPoint: "Anchor-5" 413 668 mark 0
AnchorPoint: "Anchor-1" 413 668 mark 0
LayerCount: 2
Fore
SplineSet
332.5 647 m 128,-1,1
 297 683 297 683 297 733 c 256,2,3
 297 783 297 783 332.5 818.5 c 128,-1,4
 368 854 368 854 418 854 c 256,5,6
 468 854 468 854 504 818.5 c 128,-1,7
 540 783 540 783 540 733 c 256,8,9
 540 683 540 683 504 647 c 128,-1,10
 468 611 468 611 418 611 c 256,11,0
 368 611 368 611 332.5 647 c 128,-1,1
454 697.5 m 128,-1,13
 468 712 468 712 468 732 c 0,14,15
 468 753 468 753 454 767.5 c 128,-1,16
 440 782 440 782 419 782 c 0,17,18
 399 782 399 782 384 767.5 c 128,-1,19
 369 753 369 753 369 732 c 0,20,21
 369 712 369 712 384 697.5 c 128,-1,22
 399 683 399 683 419 683 c 0,23,12
 440 683 440 683 454 697.5 c 128,-1,13
EndSplineSet
EndChar
StartChar: uni030C.alt
Encoding: 65546 -1 346
Width: 0
GlyphClass: 4
Flags: W
AnchorPoint: "Anchor-3" 294 496 mark 0
LayerCount: 2
Fore
SplineSet
433 718 m 0,1,2
 453 718 453 718 464.5 707.5 c 128,-1,3
 476 697 476 697 476 682 c 0,4,5
 476 670 476 670 470 657 c 128,-1,6
 464 644 464 644 449 620 c 2,7,-1
 392 530 l 1,8,-1
 317 530 l 1,9,-1
 368 666 l 2,10,0
 388 718 388 718 433 718 c 0,1,2
EndSplineSet
EndChar
StartChar: uni0328.alt
Encoding: 65553 -1 362
Width: 0
GlyphClass: 4
Flags: W
AnchorPoint: "Anchor-2" 363 10 mark 0
LayerCount: 2
Fore
SplineSet
188.5 -152 m 128,-1,1
 148 -132 148 -132 148 -91 c 0,2,3
 148 -53 148 -53 186 -16.5 c 128,-1,4
 224 20 224 20 269 36 c 1,5,-1
 354 35 l 1,6,7
 255 -22 255 -22 255 -70 c 0,8,9
 255 -88 255 -88 268 -97.5 c 128,-1,10
 281 -107 281 -107 304 -107 c 0,11,12
 312 -107 312 -107 340 -103 c 1,13,-1
 326 -169 l 1,14,15
 305 -172 305 -172 291 -172 c 0,16,0
 229 -172 229 -172 188.5 -152 c 128,-1,1
EndSplineSet
EndChar
StartChar: uni0328.case
Encoding: 65554 -1 363
Width: 0
GlyphClass: 4
Flags: W
AnchorPoint: "Anchor-2" 365 10 mark 0
LayerCount: 2
Fore
SplineSet
189.5 -153 m 128,-1,1
 147 -133 147 -133 147 -95 c 0,2,3
 147 -32 147 -32 251 9 c 1,4,-1
 362 0 l 1,5,6
 327 -5 327 -5 291 -27 c 128,-1,7
 255 -49 255 -49 255 -76 c 0,8,9
 255 -107 255 -107 302 -107 c 0,10,11
 313 -107 313 -107 341 -103 c 1,12,-1
 327 -169 l 1,13,14
 311 -173 311 -173 289 -173 c 0,15,0
 232 -173 232 -173 189.5 -153 c 128,-1,1
EndSplineSet
EndChar
StartChar: zero.zero
Encoding: 65539 -1 239
Width: 632
GlyphClass: 1
Flags: W
LayerCount: 2
Fore
SplineSet
112 57.5 m 128,-1,1
 50 127 50 127 50 247 c 0,2,3
 50 344 50 344 84 444 c 128,-1,4
 118 544 118 544 192 612.5 c 128,-1,5
 266 681 266 681 377 681 c 0,6,7
 497 681 497 681 558 611.5 c 128,-1,8
 619 542 619 542 619 424 c 0,9,10
 619 328 619 328 584.5 227 c 128,-1,11
 550 126 550 126 476.5 57 c 128,-1,12
 403 -12 403 -12 293 -12 c 0,13,0
 174 -12 174 -12 112 57.5 c 128,-1,1
408.5 139 m 128,-1,15
 454 197 454 197 475 278 c 128,-1,16
 496 359 496 359 496 426 c 0,17,18
 496 498 496 498 467 543 c 128,-1,19
 438 588 438 588 375 588 c 0,20,21
 308 588 308 588 262 530 c 128,-1,22
 216 472 216 472 194 390.5 c 128,-1,23
 172 309 172 309 172 242 c 0,24,25
 172 169 172 169 201.5 125 c 128,-1,26
 231 81 231 81 295 81 c 0,27,14
 363 81 363 81 408.5 139 c 128,-1,15
283.5 282.5 m 128,-1,29
 262 304 262 304 262 334 c 0,30,31
 262 365 262 365 283.5 386 c 128,-1,32
 305 407 305 407 335 407 c 0,33,34
 366 407 366 407 387 386 c 128,-1,35
 408 365 408 365 408 334 c 0,36,37
 408 304 408 304 387 282.5 c 128,-1,38
 366 261 366 261 335 261 c 0,39,28
 305 261 305 261 283.5 282.5 c 128,-1,29
EndSplineSet
EndChar
